<svg width="27" height="27" viewBox="0 0 27 27" fill="none" xmlns="http://www.w3.org/2000/svg">
<circle cx="13.6954" cy="13.6952" r="13.0276" stroke="#363636" stroke-width="0.554367"/>
<g clip-path="url(#clip0_1102_1331)">
<path d="M13.2325 15.7164C13.3836 15.8109 13.5536 15.8487 13.7048 15.8487C13.8559 15.8487 14.0259 15.8109 14.177 15.7164L21.6953 11.1261V17.2277C21.6953 18.5311 20.6375 19.5889 19.334 19.5889H8.05659C6.75316 19.5889 5.69531 18.5311 5.69531 17.2277V11.1261L13.2325 15.7164Z" fill="#363636"/>
<path d="M8.05645 7.80145H19.3339C20.4484 7.80145 21.3929 8.59484 21.6196 9.65269L13.6857 14.4886L5.77073 9.65269C5.99742 8.59484 6.94193 7.80145 8.05645 7.80145Z" fill="#363636"/>
</g>
<circle cx="23.7992" cy="4.60092" r="3.20053" fill="#29BAE2"/>
<defs>
<clipPath id="clip0_1102_1331">
<rect width="16" height="16" fill="white" transform="matrix(-1 0 0 1 21.6953 5.69519)"/>
</clipPath>
</defs>
</svg>
