<svg width="17" height="16" viewBox="0 0 17 16" fill="none" xmlns="http://www.w3.org/2000/svg">
<g clip-path="url(#clip0_810_573)">
<path d="M8.39901 10.0215C8.55013 10.1159 8.72014 10.1537 8.87126 10.1537C9.02238 10.1537 9.19239 10.1159 9.34352 10.0215L16.8618 5.43115V11.5327C16.8618 12.8361 15.804 13.894 14.5005 13.894H3.22309C1.91967 13.894 0.861816 12.8361 0.861816 11.5327V5.43115L8.39901 10.0215Z" fill="#29BAE2"/>
<path d="M3.22307 2.10645H14.5005C15.6151 2.10645 16.5596 2.89983 16.7863 3.95769L8.85236 8.79358L0.937359 3.95769C1.16404 2.89983 2.10855 2.10645 3.22307 2.10645Z" fill="#29BAE2"/>
</g>
<defs>
<clipPath id="clip0_810_573">
<rect width="16" height="16" fill="white" transform="matrix(-1 0 0 1 16.8618 0)"/>
</clipPath>
</defs>
</svg>
