<svg width="13" height="16" viewBox="0 0 13 16" fill="none" xmlns="http://www.w3.org/2000/svg">
<path d="M6.36181 0C3.05382 0 0.361816 2.71067 0.361816 6.04333C0.361816 10.7787 5.79782 15.668 6.02915 15.8733C6.12448 15.958 6.24315 16 6.36181 16C6.48048 16 6.59915 15.958 6.69448 15.874C6.92581 15.668 12.3618 10.7787 12.3618 6.04333C12.3618 2.71067 9.66981 0 6.36181 0ZM6.36181 9.33333C4.52382 9.33333 3.02848 7.838 3.02848 6C3.02848 4.162 4.52382 2.66667 6.36181 2.66667C8.19981 2.66667 9.69515 4.162 9.69515 6C9.69515 7.838 8.19981 9.33333 6.36181 9.33333Z" fill="#29BAE2"/>
</svg>
