<svg width="16" height="16" viewBox="0 0 16 16" fill="none" xmlns="http://www.w3.org/2000/svg">
<path d="M15.3793 11.3C15.3383 11.2675 12.3618 9.122 11.5448 9.276C11.1548 9.345 10.9318 9.611 10.4843 10.1435C10.4123 10.2295 10.2393 10.4355 10.1048 10.582C9.82201 10.4898 9.54615 10.3775 9.27932 10.246C7.90208 9.5755 6.78931 8.46274 6.11882 7.0855C5.98725 6.81871 5.87496 6.54284 5.78282 6.26C5.92982 6.125 6.13582 5.952 6.22382 5.878C6.75382 5.433 7.02032 5.21 7.08932 4.819C7.23082 4.009 5.08682 1.012 5.06432 0.985C4.96704 0.846035 4.84009 0.730431 4.69265 0.646552C4.54521 0.562672 4.38098 0.512614 4.21182 0.5C3.34282 0.5 0.861816 3.7185 0.861816 4.2605C0.861816 4.292 0.907316 7.494 4.85582 11.5105C8.86832 15.4545 12.0698 15.5 12.1013 15.5C12.6438 15.5 15.8618 13.019 15.8618 12.15C15.8493 11.9814 15.7996 11.8177 15.7161 11.6707C15.6327 11.5238 15.5177 11.3971 15.3793 11.3Z" fill="#29BAE2"/>
</svg>
