<svg width="27" height="28" viewBox="0 0 27 28" fill="none" xmlns="http://www.w3.org/2000/svg">
<circle cx="13.6952" cy="14.1336" r="13.0276" stroke="white" stroke-width="0.554367"/>
<g clip-path="url(#clip0_808_579)">
<path d="M16.4665 8.59229L15.0287 8.58998C13.4135 8.58998 12.3696 9.66095 12.3696 11.3186V12.5766H10.924C10.7991 12.5766 10.6979 12.6779 10.6979 12.8028V14.6256C10.6979 14.7505 10.7992 14.8517 10.924 14.8517H12.3696V19.4511C12.3696 19.576 12.4707 19.6772 12.5957 19.6772H14.4818C14.6067 19.6772 14.7078 19.5759 14.7078 19.4511V14.8517H16.3981C16.523 14.8517 16.6242 14.7505 16.6242 14.6256L16.6249 12.8028C16.6249 12.7428 16.601 12.6854 16.5587 12.6429C16.5163 12.6005 16.4587 12.5766 16.3987 12.5766H14.7078V11.5101C14.7078 10.9976 14.83 10.7373 15.4977 10.7373L16.4663 10.737C16.5911 10.737 16.6922 10.6357 16.6922 10.5109V8.81836C16.6922 8.69368 16.5912 8.59252 16.4665 8.59229Z" fill="white"/>
</g>
<defs>
<clipPath id="clip0_808_579">
<rect width="11.0873" height="11.0872" fill="white" transform="translate(8.15152 8.58998)"/>
</clipPath>
</defs>
</svg>
