<svg width="27" height="27" viewBox="0 0 27 27" fill="none" xmlns="http://www.w3.org/2000/svg">
<circle cx="13.6952" cy="13.3048" r="13.0276" stroke="white" stroke-width="0.554367"/>
<g clip-path="url(#clip0_808_578)">
<path d="M15.7741 7.76111H11.6163C9.70305 7.76111 8.15152 9.31264 8.15152 11.2259V15.3837C8.15152 17.2969 9.70305 18.8484 11.6163 18.8484H15.7741C17.6873 18.8484 19.2389 17.2969 19.2389 15.3837V11.2259C19.2389 9.31264 17.6873 7.76111 15.7741 7.76111ZM18.1994 15.3837C18.1994 16.7211 17.1115 17.809 15.7741 17.809H11.6163C10.2789 17.809 9.19096 16.7211 9.19096 15.3837V11.2259C9.19096 9.88849 10.2789 8.80055 11.6163 8.80055H15.7741C17.1115 8.80055 18.1994 9.88849 18.1994 11.2259V15.3837Z" fill="white"/>
<path d="M13.6952 10.533C12.1644 10.533 10.9233 11.774 10.9233 13.3048C10.9233 14.8355 12.1644 16.0766 13.6952 16.0766C15.2259 16.0766 16.467 14.8355 16.467 13.3048C16.467 11.774 15.2259 10.533 13.6952 10.533ZM13.6952 15.0372C12.7403 15.0372 11.9628 14.2597 11.9628 13.3048C11.9628 12.3492 12.7403 11.5724 13.6952 11.5724C14.6501 11.5724 15.4276 12.3492 15.4276 13.3048C15.4276 14.2597 14.6501 15.0372 13.6952 15.0372Z" fill="white"/>
<path d="M16.6749 10.6943C16.8789 10.6943 17.0443 10.5289 17.0443 10.3249C17.0443 10.121 16.8789 9.9556 16.6749 9.9556C16.4709 9.9556 16.3056 10.121 16.3056 10.3249C16.3056 10.5289 16.4709 10.6943 16.6749 10.6943Z" fill="white"/>
</g>
<defs>
<clipPath id="clip0_808_578">
<rect width="11.0873" height="11.0873" fill="white" transform="translate(8.15152 7.76111)"/>
</clipPath>
</defs>
</svg>
