<svg width="24" height="24" viewBox="0 0 24 24" fill="none" xmlns="http://www.w3.org/2000/svg">
<path d="M22.0963 15.7389C20.7712 14.5745 18.7811 13.2557 16.0695 12.5524C17.8061 11.2903 18.9375 9.24375 18.9375 6.9375C18.9375 3.11221 15.8253 0 12 0C8.17471 0 5.0625 3.11221 5.0625 6.9375C5.0625 9.24375 6.19395 11.2903 7.93066 12.5524C5.21895 13.2557 3.22881 14.5745 1.90371 15.7389C0.694043 16.8018 0 18.3393 0 19.957C0 22.1899 1.8101 24 4.04297 24H19.957C22.1899 24 24 22.1899 24 19.957C24 18.3393 23.306 16.8018 22.0963 15.7389ZM6.9375 6.9375C6.9375 4.14609 9.20859 1.875 12 1.875C14.7914 1.875 17.0625 4.14609 17.0625 6.9375C17.0625 9.72891 14.7914 12 12 12C9.20859 12 6.9375 9.72891 6.9375 6.9375ZM22.125 19.957C22.125 21.1544 21.1544 22.125 19.957 22.125H4.04297C2.84563 22.125 1.875 21.1544 1.875 19.957C1.875 18.8786 2.33657 17.8544 3.14136 17.1473C4.81611 15.6759 7.7124 13.9219 12 13.9219C16.2876 13.9219 19.1839 15.6759 20.8586 17.1473C21.6634 17.8544 22.125 18.8786 22.125 19.957Z" fill="white"/>
<path d="M6.9375 6.9375C6.9375 4.14609 9.20859 1.875 12 1.875C14.7914 1.875 17.0625 4.14609 17.0625 6.9375C17.0625 9.72891 14.7914 12 12 12C9.20859 12 6.9375 9.72891 6.9375 6.9375Z" fill="white"/>
<path d="M22.125 19.957C22.125 21.1544 21.1544 22.125 19.957 22.125H4.04297C2.84563 22.125 1.875 21.1544 1.875 19.957C1.875 18.8786 2.33657 17.8544 3.14136 17.1473C4.81611 15.6759 7.7124 13.9219 12 13.9219C16.2876 13.9219 19.1839 15.6759 20.8586 17.1473C21.6634 17.8544 22.125 18.8786 22.125 19.957Z" fill="white"/>
</svg>
