<svg width="19" height="20" viewBox="0 0 19 20" fill="none" xmlns="http://www.w3.org/2000/svg">
<path d="M18.6361 17.2551L15.3259 13.9445C16.3059 12.5661 16.8879 10.8859 16.8879 9.06927C16.8879 4.41313 13.0999 0.625153 8.44378 0.625153C3.78765 0.625153 0 4.41313 0 9.06927C0 13.7251 3.78765 17.513 8.44378 17.513C10.3889 17.513 12.177 16.8458 13.6059 15.7366L16.8799 19.0106C17.1223 19.253 17.4407 19.3745 17.758 19.3745C18.0761 19.3745 18.3938 19.2533 18.6361 19.0106C19.1212 18.5263 19.1212 17.7401 18.6361 17.2551ZM1.98728 9.0696C1.98728 5.50903 4.88421 2.61243 8.44444 2.61243C12.0047 2.61243 14.9016 5.50903 14.9016 9.0696C14.9016 10.5509 14.3953 11.9134 13.5527 13.0043C13.2742 13.3645 12.9615 13.6968 12.6142 13.9913C11.4881 14.9468 10.0337 15.5268 8.44444 15.5268C4.88387 15.5264 1.98728 12.6298 1.98728 9.0696Z" fill="white"/>
</svg>
