<svg width="27" height="28" viewBox="0 0 27 28" fill="none" xmlns="http://www.w3.org/2000/svg">
<circle cx="13.6952" cy="14.2192" r="13.0276" stroke="white" stroke-width="0.554367"/>
<g clip-path="url(#clip0_808_580)">
<path d="M19.14 16.6987C19.1102 16.6488 18.9258 16.2483 18.0388 15.425C17.1101 14.5629 17.2349 14.7028 18.3534 13.2122C19.0346 12.3043 19.307 11.7499 19.2217 11.5129C19.1407 11.287 18.6396 11.3466 18.6396 11.3466L16.9736 11.3563C16.9736 11.3563 16.8503 11.3397 16.7581 11.3944C16.6687 11.4485 16.6112 11.5732 16.6112 11.5732C16.6112 11.5732 16.3471 12.2759 15.9951 12.8733C15.2529 14.1339 14.9556 14.2004 14.8343 14.1221C14.5522 13.9398 14.6229 13.3889 14.6229 12.998C14.6229 11.7763 14.808 11.2669 14.2619 11.1352C14.0803 11.0916 13.9472 11.0625 13.4836 11.0576C12.889 11.0514 12.3852 11.0597 12.1004 11.199C11.9105 11.2918 11.7643 11.4991 11.8537 11.5108C11.9639 11.5254 12.2133 11.5781 12.3457 11.7582C12.5169 11.9904 12.5106 12.5129 12.5106 12.5129C12.5106 12.5129 12.609 13.9509 12.2813 14.1297C12.056 14.2524 11.7476 14.0022 11.0858 12.8581C10.7469 12.2725 10.4905 11.6245 10.4905 11.6245C10.4905 11.6245 10.4413 11.5039 10.3533 11.4395C10.2466 11.3612 10.0969 11.3362 10.0969 11.3362L8.51267 11.3459C8.51267 11.3459 8.27497 11.3528 8.18765 11.4561C8.11003 11.5483 8.18141 11.7381 8.18141 11.7381C8.18141 11.7381 9.4219 14.6398 10.8259 16.1027C12.1142 17.4437 13.5765 17.3557 13.5765 17.3557H14.239C14.239 17.3557 14.4393 17.3335 14.5412 17.2233C14.6354 17.1221 14.6319 16.9323 14.6319 16.9323C14.6319 16.9323 14.6188 16.0431 15.0318 15.9121C15.4386 15.7832 15.9611 16.7715 16.5148 17.1519C16.9334 17.4395 17.2515 17.3765 17.2515 17.3765L18.7325 17.3557C18.7325 17.3557 19.5073 17.3079 19.14 16.6987Z" fill="white"/>
</g>
<defs>
<clipPath id="clip0_808_580">
<rect width="11.0873" height="11.0873" fill="white" transform="translate(8.15152 8.67554)"/>
</clipPath>
</defs>
</svg>
