<svg width="49" height="48" viewBox="0 0 49 48" fill="none" xmlns="http://www.w3.org/2000/svg">
<circle cx="24.8643" cy="24" r="24" fill="url(#paint0_linear_817_1490)"/>
<g clip-path="url(#clip0_817_1490)">
<path d="M20.6455 27.5158H33.3488C33.6634 27.5158 33.9393 27.3078 34.0245 27.0057L36.8372 17.1617C36.8976 16.9495 36.8562 16.7216 36.7231 16.5452C36.5898 16.3694 36.3825 16.2656 36.1613 16.2656H19.0223L18.5197 14.0039C18.4482 13.6818 18.1626 13.4531 17.833 13.4531H13.5674C13.1788 13.4531 12.8643 13.7677 12.8643 14.1562C12.8643 14.545 13.1788 14.8594 13.5674 14.8594H17.2687L19.8078 26.2852C19.0607 26.61 18.5361 27.3536 18.5361 28.2189C18.5361 29.382 19.4824 30.3283 20.6455 30.3283H33.3488C33.7375 30.3283 34.0519 30.0139 34.0519 29.6252C34.0519 29.2366 33.7375 28.9221 33.3488 28.9221H20.6455C20.2582 28.9221 19.9424 28.6069 19.9424 28.2189C19.9424 27.8309 20.2582 27.5158 20.6455 27.5158Z" fill="white"/>
<path d="M19.9424 32.4377C19.9424 33.601 20.8887 34.5471 22.0519 34.5471C23.215 34.5471 24.1613 33.601 24.1613 32.4377C24.1613 31.2746 23.215 30.3283 22.0519 30.3283C20.8887 30.3283 19.9424 31.2746 19.9424 32.4377Z" fill="white"/>
<path d="M29.833 32.4377C29.833 33.601 30.7793 34.5471 31.9424 34.5471C33.1057 34.5471 34.0518 33.601 34.0518 32.4377C34.0518 31.2746 33.1057 30.3283 31.9424 30.3283C30.7793 30.3283 29.833 31.2746 29.833 32.4377Z" fill="white"/>
</g>
<defs>
<linearGradient id="paint0_linear_817_1490" x1="23.4825" y1="-0.0167891" x2="23.4825" y2="47.3956" gradientUnits="userSpaceOnUse">
<stop stop-color="#5DC5EC"/>
<stop offset="1" stop-color="#75AC2C"/>
</linearGradient>
<clipPath id="clip0_817_1490">
<rect width="24" height="24" fill="white" transform="translate(12.8643 12)"/>
</clipPath>
</defs>
</svg>
