<svg width="72" height="73" viewBox="0 0 72 73" fill="none" xmlns="http://www.w3.org/2000/svg">
<path d="M11.25 35.4592C13.1108 35.4592 14.625 33.945 14.625 32.0842C14.625 30.2235 13.1108 28.7092 11.25 28.7092C9.38925 28.7092 7.875 30.2235 7.875 32.0842C7.875 33.945 9.38925 35.4592 11.25 35.4592ZM11.25 30.9592C11.871 30.9592 12.375 31.4632 12.375 32.0842C12.375 32.7052 11.871 33.2092 11.25 33.2092C10.629 33.2092 10.125 32.7052 10.125 32.0842C10.125 31.4632 10.629 30.9592 11.25 30.9592Z" fill="black" fill-opacity="0.5"/>
<path d="M67.5 1.70923H14.625C12.7642 1.70923 11.25 3.22348 11.25 5.08423V12.5419L9.16312 9.47173C8.47462 8.46148 7.10887 8.1611 6.05587 8.78098L2.259 11.0141C1.67175 11.3606 1.269 11.9411 1.15762 12.6094C1.04512 13.2742 1.23187 13.9504 1.67062 14.4645L4.98712 18.3671L4.3875 18.7372C3.34462 19.4381 3.06112 20.8612 3.75637 21.9086L6.39562 25.8967C4.55962 27.3401 3.375 29.5744 3.375 32.0842V50.0842C3.375 60.2497 11.3535 68.5646 21.375 69.1519V69.2092C21.375 70.4501 22.3841 71.4592 23.625 71.4592H43.875H49.5H52.155H63.405C65.0419 71.4592 66.375 70.1261 66.375 68.4892C66.375 68.0561 66.2827 67.6376 66.1016 67.245L61.875 58.0875V57.9592H61.8165L59.625 53.2117V46.7092C59.625 45.4684 58.6159 44.4592 57.375 44.4592H52.875C51.6341 44.4592 50.625 45.4684 50.625 46.7092V53.2432L49.5866 55.8386L48.375 53.2117V46.7092C48.375 45.4684 47.3659 44.4592 46.125 44.4592H41.625C40.3841 44.4592 39.375 45.4684 39.375 46.7092V53.1476L37.8382 55.7092H25.875V57.9592H30.375V60.2092H23.625C17.4217 60.2092 12.375 55.1625 12.375 48.9592V39.8692C13.3324 39.7309 14.2357 39.4271 15.0502 38.9771L20.9779 47.9355C21.321 48.4541 21.8452 48.8029 22.4527 48.9187C22.5967 48.9457 22.7419 48.9604 22.8859 48.9604C23.3449 48.9604 23.7937 48.8197 24.1807 48.5509L37.269 39.4204C37.7809 39.0649 38.1184 38.5271 38.2196 37.9095C38.3209 37.2896 38.1701 36.6709 37.7955 36.1657L37.269 35.4592H67.5C69.3607 35.4592 70.875 33.945 70.875 32.0842V5.08423C70.875 3.22348 69.3607 1.70923 67.5 1.70923ZM14.625 3.95923H67.5C68.121 3.95923 68.625 4.46323 68.625 5.08423V8.45923H13.5V5.08423C13.5 4.46323 14.004 3.95923 14.625 3.95923ZM32.6081 32.8436L32.2324 33.1057L16.1111 13.7692C15.4721 12.9975 14.3977 12.7624 13.5 13.1494V10.7092H39.375V33.2092H35.5725C34.8221 32.3531 33.5599 32.1799 32.6081 32.8436ZM3.39862 12.9547L7.30237 10.7374L10.2712 15.1057L6.92774 17.169L3.39862 12.9547ZM11.25 26.4592C14.3516 26.4592 16.875 28.9826 16.875 32.0842C16.875 35.1859 14.3516 37.7092 11.25 37.7092C8.14837 37.7092 5.625 35.1859 5.625 32.0842C5.625 28.9826 8.14837 26.4592 11.25 26.4592ZM52.875 53.6752V46.7092H57.375V53.4592H55.125V55.7092H58.2997L59.3381 57.9592H57.375V60.2092H60.3765L61.4149 62.4592H59.625V64.7092H62.4532L64.0586 68.1877C64.1025 68.2834 64.125 68.3857 64.125 68.4892C64.125 68.8864 63.8021 69.2092 63.405 69.2092H55.026C55.0845 68.9775 55.125 68.739 55.125 68.4892C55.125 68.0561 55.0327 67.6376 54.8516 67.245L50.8849 58.6511L52.875 53.6752ZM41.625 53.7709V46.7092H46.125V53.4592H43.875V55.7092H47.0497L48.0881 57.9592H46.125V60.2092H49.1265L50.1649 62.4592H48.375V64.7092H51.2032L52.8086 68.1877C52.8525 68.2834 52.875 68.3857 52.875 68.4892C52.875 68.8864 52.5521 69.2092 52.155 69.2092H49.5H46.125V62.4592C46.125 61.2184 45.1159 60.2092 43.875 60.2092H37.125V57.9592H41.625V55.7092H40.4617L41.625 53.7709ZM32.625 57.9592H34.875V60.2092H32.625V57.9592ZM43.875 62.4592L43.8772 69.2092H43.875H23.625V62.4592H43.875ZM21.3952 62.259C21.3896 62.3265 21.375 62.3906 21.375 62.4592V66.9019C12.5944 66.3191 5.625 59.01 5.625 50.0842V37.5844C6.80737 38.7926 8.3745 39.6172 10.125 39.8692V48.9592C10.125 55.6429 15.0109 61.1914 21.3952 62.259ZM16.8469 37.6147C18.2542 36.1916 19.125 34.2386 19.125 32.0842C19.125 27.7429 15.5914 24.2092 11.25 24.2092C10.2251 24.2092 9.24749 24.4117 8.3475 24.7706L5.60587 20.6284L14.382 15.2092L30.3806 34.4006L19.6717 41.8841L16.8469 37.6147ZM22.8544 46.6935L20.9126 43.7606L33.8895 34.6897L35.9809 37.5742L22.8544 46.6935ZM67.5 33.2092H41.625V10.7092H68.625V32.0842C68.625 32.7052 68.121 33.2092 67.5 33.2092Z" fill="black" fill-opacity="0.5"/>
<path d="M57.375 18.5842H59.625V23.0842H57.375V25.3342H64.125V23.0842H61.875V18.5842H64.125V16.3342H57.375V18.5842Z" fill="black" fill-opacity="0.5"/>
<path d="M37.125 18.5842V16.3342H30.375V18.5842H32.625V23.0842H30.375V25.3342H37.125V23.0842H34.875V18.5842H37.125Z" fill="black" fill-opacity="0.5"/>
</svg>
