<svg width="24" height="24" viewBox="0 0 24 24" fill="none" xmlns="http://www.w3.org/2000/svg">
<path d="M14.0043 0C16.0257 0 17.7901 0.403136 19.2976 1.20941C20.8051 1.99776 21.9615 3.11758 22.7666 4.56887C23.5889 6.00224 24 7.65957 24 9.54087C24 11.0638 23.743 12.4793 23.2291 13.7872C22.7323 15.0952 21.9872 16.1433 20.9936 16.9317C20.0171 17.7021 18.8522 18.0873 17.4989 18.0873C16.591 18.0873 15.8373 17.8992 15.2377 17.523C14.6552 17.1467 14.2612 16.6181 14.0557 15.9373C13.576 16.6361 12.9593 17.1825 12.2056 17.5767C11.4518 17.953 10.6295 18.1411 9.73876 18.1411C8.47109 18.1411 7.46895 17.7469 6.73233 16.9586C6.01285 16.1523 5.6531 15.0594 5.6531 13.6797C5.6531 12.3718 5.91006 11.1445 6.42398 9.99776C6.9379 8.83315 7.64882 7.90146 8.55674 7.20269C9.46467 6.50392 10.4839 6.15454 11.6146 6.15454C13.0535 6.15454 14.03 6.69205 14.5439 7.76708L14.7752 6.34267H18.3212L17.1906 13.0885C17.1392 13.411 17.1135 13.6976 17.1135 13.9485C17.1135 14.7368 17.4475 15.131 18.1156 15.131C18.9379 15.131 19.5632 14.5845 19.9914 13.4916C20.4368 12.3807 20.6595 11.1086 20.6595 9.67525C20.6595 7.61478 20.0343 6.00224 18.7837 4.83763C17.5503 3.67301 15.8116 3.0907 13.5675 3.0907C11.6488 3.0907 9.9015 3.57447 8.32548 4.54199C6.76659 5.50952 5.54176 6.83539 4.65096 8.5196C3.76017 10.1859 3.31477 12.0224 3.31477 14.0291C3.31477 16.1971 3.91435 17.8813 5.11349 19.0817C6.32976 20.2822 8.0257 20.8824 10.2013 20.8824C11.8972 20.8824 13.4133 20.5599 14.7495 19.9149L15.4433 22.8443C13.7645 23.6148 11.8801 24 9.79015 24C7.83726 24 6.11563 23.6058 4.62527 22.8175C3.15203 22.0291 2.01285 20.9093 1.20771 19.458C0.40257 18.0067 0 16.3136 0 14.3785C0 11.673 0.608137 9.22732 1.82441 7.04143C3.04068 4.83763 4.71092 3.11758 6.83512 1.8813C8.97645 0.627099 11.3662 0 14.0043 0ZM11.1777 14.8354C11.6574 14.8354 12.1028 14.6831 12.5139 14.3785C12.9422 14.0739 13.2762 13.6708 13.5161 13.1691C13.773 12.6495 13.9015 12.0941 13.9015 11.5028C13.9015 10.8936 13.7388 10.4009 13.4133 10.0246C13.0878 9.63046 12.6424 9.43337 12.0771 9.43337C11.3233 9.43337 10.6981 9.7738 10.2013 10.4546C9.7045 11.1355 9.4561 11.9418 9.4561 12.8735C9.4561 13.4647 9.60171 13.9395 9.89293 14.2979C10.1842 14.6562 10.6124 14.8354 11.1777 14.8354Z" fill="#29BAE2"/>
</svg>
