<svg width="56" height="56" viewBox="0 0 56 56" fill="none" xmlns="http://www.w3.org/2000/svg">
<path d="M23.4295 47.0645C23.1864 45.8472 22.6851 44.6962 21.9594 43.6891C21.2337 42.682 20.3004 41.8422 19.2225 41.2265C18.1863 40.6379 17.0776 40.1872 15.9246 39.886C16.9524 39.1143 17.7114 38.0388 18.0941 36.8119C18.4769 35.585 18.4639 34.2687 18.0572 33.0495C17.6504 31.8303 16.8704 30.77 15.8277 30.0186C14.7849 29.2673 13.5322 28.863 12.247 28.863C10.9617 28.863 9.70906 29.2673 8.66631 30.0186C7.62356 30.77 6.84359 31.8303 6.43683 33.0495C6.03007 34.2687 6.01714 35.585 6.39986 36.8119C6.78259 38.0388 7.54158 39.1143 8.56937 39.886C7.41727 40.1874 6.30948 40.6381 5.27412 41.2265C4.19638 41.8422 3.26318 42.6818 2.53745 43.6887C1.81173 44.6957 1.31034 45.8465 1.06712 47.0636L0.0171188 52.325C-0.02352 52.5274 0.00873126 52.7377 0.108169 52.9186C0.207608 53.0996 0.367826 53.2395 0.560494 53.3138C8.08381 56.2118 16.4154 56.2118 23.9387 53.3138C24.1314 53.2395 24.2916 53.0996 24.3911 52.9186C24.4905 52.7377 24.5228 52.5274 24.4821 52.325L23.4295 47.0645ZM7.87462 35C7.87462 34.1347 8.13121 33.2889 8.61194 32.5694C9.09267 31.8499 9.77595 31.2892 10.5754 30.958C11.3748 30.6269 12.2545 30.5403 13.1031 30.7091C13.9518 30.8779 14.7314 31.2946 15.3432 31.9064C15.9551 32.5183 16.3717 33.2978 16.5406 34.1465C16.7094 34.9952 16.6227 35.8748 16.2916 36.6742C15.9605 37.4737 15.3997 38.157 14.6802 38.6377C13.9608 39.1184 13.1149 39.375 12.2496 39.375C11.0897 39.3736 9.97773 38.9122 9.15756 38.0921C8.33739 37.2719 7.87601 36.1599 7.87462 35ZM1.87824 51.9391L2.78562 47.4066C2.97971 46.4348 3.38 45.5159 3.95948 44.712C4.53895 43.9081 5.28414 43.2378 6.14474 42.7464C8.01047 41.7035 10.1122 41.156 12.2496 41.156C14.387 41.156 16.4888 41.7035 18.3545 42.7464C19.2152 43.2378 19.9605 43.9082 20.54 44.7123C21.1195 45.5164 21.5197 46.4355 21.7136 47.4075L22.621 51.9391C15.9153 54.341 8.5839 54.341 1.87824 51.9391Z" fill="black" fill-opacity="0.5"/>
<path d="M55.9821 52.325L54.9321 47.061C54.6891 45.8437 54.1878 44.6927 53.462 43.6856C52.7363 42.6785 51.803 41.8387 50.7251 41.223C49.6879 40.6354 48.5784 40.1859 47.4246 39.886C48.4524 39.1143 49.2114 38.0388 49.5941 36.8119C49.9768 35.585 49.9639 34.2687 49.5572 33.0495C49.1504 31.8303 48.3704 30.77 47.3277 30.0186C46.2849 29.2673 45.0322 28.863 43.747 28.863C42.4617 28.863 41.2091 29.2673 40.1663 30.0186C39.1236 30.77 38.3436 31.8303 37.9368 33.0495C37.5301 34.2687 37.5171 35.585 37.8999 36.8119C38.2826 38.0388 39.0416 39.1143 40.0694 39.886C38.9173 40.1874 37.8095 40.6381 36.7741 41.2265C35.6964 41.8422 34.7632 42.6818 34.0375 43.6887C33.3117 44.6957 32.8103 45.8465 32.5671 47.0636L31.5171 52.325C31.4765 52.5274 31.5087 52.7377 31.6082 52.9186C31.7076 53.0996 31.8678 53.2395 32.0605 53.3138C39.5838 56.2118 47.9154 56.2118 55.4387 53.3138C55.6314 53.2395 55.7916 53.0996 55.8911 52.9186C55.9905 52.7377 56.0228 52.5274 55.9821 52.325ZM39.3746 35C39.3746 34.1347 39.6312 33.2889 40.1119 32.5694C40.5927 31.8499 41.276 31.2892 42.0754 30.958C42.8748 30.6269 43.7545 30.5403 44.6031 30.7091C45.4518 30.8779 46.2314 31.2946 46.8432 31.9064C47.4551 32.5183 47.8717 33.2978 48.0406 34.1465C48.2094 34.9952 48.1227 35.8748 47.7916 36.6742C47.4605 37.4737 46.8997 38.157 46.1802 38.6377C45.4608 39.1184 44.6149 39.375 43.7496 39.375C42.5897 39.3736 41.4777 38.9122 40.6576 38.0921C39.8374 37.2719 39.376 36.1599 39.3746 35ZM33.3782 51.9391L34.2856 47.4066C34.4797 46.4348 34.88 45.5159 35.4595 44.712C36.039 43.9081 36.7841 43.2378 37.6447 42.7464C39.5105 41.7035 41.6122 41.156 43.7496 41.156C45.887 41.156 47.9888 41.7035 49.8545 42.7464C50.7152 43.2378 51.4605 43.9082 52.04 44.7123C52.6195 45.5164 53.0197 46.4355 53.2136 47.4075L54.121 51.9391C47.4153 54.341 40.0839 54.341 33.3782 51.9391Z" fill="black" fill-opacity="0.5"/>
<path d="M34.0707 20.951L37.7624 26.726C37.8559 26.8726 37.991 26.9881 38.1504 27.0576C38.3098 27.1271 38.4864 27.1476 38.6575 27.1163C38.8286 27.085 38.9864 27.0035 39.111 26.8821C39.2355 26.7606 39.321 26.6049 39.3566 26.4346L40.6157 20.4575C47.2264 19.026 51.625 15.0736 51.625 10.5C51.625 4.71012 44.3625 0 35.4375 0C26.5125 0 19.25 4.71012 19.25 10.5C19.25 15.967 25.725 20.5012 34.0707 20.951ZM35.4375 1.75C43.4 1.75 49.875 5.67525 49.875 10.5C49.875 14.2782 45.6969 17.7126 39.7154 18.851C39.5458 18.8832 39.3895 18.9648 39.2661 19.0857C39.1428 19.2065 39.058 19.3611 39.0224 19.53L38.0844 23.975L35.301 19.6228C35.2246 19.5034 35.1203 19.4044 34.9971 19.3343C34.874 19.2642 34.7356 19.2251 34.594 19.2202C26.971 18.9516 21 15.12 21 10.5C21 5.67525 27.475 1.75 35.4375 1.75Z" fill="black" fill-opacity="0.5"/>
<path d="M33.2238 22.7264C33.1957 22.6149 33.146 22.51 33.0775 22.4178C33.0089 22.3255 32.9229 22.2477 32.8242 22.1887C32.7256 22.1297 32.6163 22.0907 32.5026 22.074C32.3889 22.0572 32.273 22.063 32.1615 22.0911C29.3249 22.7912 26.3802 22.9398 23.4876 22.5286C23.2817 22.4986 23.0718 22.5443 22.897 22.6572L18.8125 25.2525L19.4565 22.3527C19.5018 22.1491 19.4728 21.9359 19.3748 21.7517C19.2767 21.5675 19.1161 21.4244 18.9219 21.3482C14.7446 19.7102 12.25 16.9627 12.25 14C12.25 11.0906 14.6633 8.37111 18.7049 6.72611C18.8113 6.68279 18.9082 6.61893 18.99 6.53816C19.0718 6.4574 19.1369 6.36132 19.1815 6.25541C19.2261 6.1495 19.2495 6.03583 19.2502 5.9209C19.2509 5.80596 19.229 5.69201 19.1857 5.58555C19.1424 5.47909 19.0785 5.3822 18.9977 5.30042C18.917 5.21864 18.8209 5.15357 18.715 5.10892C18.6091 5.06428 18.4954 5.04093 18.3805 5.04021C18.2655 5.03949 18.1516 5.06142 18.0451 5.10474C13.321 7.02799 10.5 10.3539 10.5 14C10.5 17.5306 13.1346 20.7375 17.5875 22.6896L16.6434 26.9351C16.6056 27.1042 16.6188 27.2807 16.6815 27.4422C16.7441 27.6038 16.8533 27.7431 16.9951 27.8425C17.137 27.9419 17.3052 27.997 17.4785 28.0007C17.6517 28.0045 17.8221 27.9567 17.9681 27.8635L23.5681 24.3005C26.5807 24.6906 29.6395 24.5167 32.5885 23.7877C32.8134 23.7311 33.0067 23.5876 33.1258 23.3885C33.2449 23.1895 33.2802 22.9513 33.2238 22.7264Z" fill="black" fill-opacity="0.5"/>
<path d="M29.75 6.125H34.125V7.875H29.75V6.125Z" fill="black" fill-opacity="0.5"/>
<path d="M35.875 6.125H37.625V7.875H35.875V6.125Z" fill="black" fill-opacity="0.5"/>
<path d="M39.375 6.125H43.75V7.875H39.375V6.125Z" fill="black" fill-opacity="0.5"/>
<path d="M27.125 9.625H37.625V11.375H27.125V9.625Z" fill="black" fill-opacity="0.5"/>
<path d="M39.375 9.625H43.75V11.375H39.375V9.625Z" fill="black" fill-opacity="0.5"/>
<path d="M27.125 13.125H30.625V14.875H27.125V13.125Z" fill="black" fill-opacity="0.5"/>
<path d="M32.375 13.125H42V14.875H32.375V13.125Z" fill="black" fill-opacity="0.5"/>
</svg>
