<svg width="56" height="56" viewBox="0 0 56 56" fill="none" xmlns="http://www.w3.org/2000/svg">
<path d="M52.5 9.625H35C33.5527 9.625 32.375 10.8027 32.375 12.25V14.875H21.875L28.875 5.54138V0.875H6.125V5.54138L13.125 14.875H3.5C2.05275 14.875 0.875 16.0527 0.875 17.5V42C0.875 43.1393 1.60913 44.1018 2.625 44.464V49.3351C2.08687 49.9502 1.75 50.7456 1.75 51.625C1.75 53.5552 3.31975 55.125 5.25 55.125C7.18025 55.125 8.75 53.5552 8.75 51.625C8.75 50.7456 8.41313 49.9502 7.875 49.3343V44.625H23.625V49.3343C23.0869 49.9494 22.75 50.7448 22.75 51.625C22.75 53.5552 24.3197 55.125 26.25 55.125C28.1803 55.125 29.75 53.5552 29.75 51.625C29.75 50.7456 29.4131 49.9502 28.875 49.3343V44.625H48.125V49.3343C47.5869 49.9494 47.25 50.7448 47.25 51.625C47.25 53.5552 48.8198 55.125 50.75 55.125C52.6802 55.125 54.25 53.5552 54.25 51.625C54.25 50.7456 53.9131 49.9502 53.375 49.3343V44.464C54.3909 44.1018 55.125 43.1393 55.125 42V12.25C55.125 10.8027 53.9473 9.625 52.5 9.625ZM35 11.375H52.5C52.9821 11.375 53.375 11.7679 53.375 12.25V13.125H34.125V12.25C34.125 11.7679 34.5179 11.375 35 11.375ZM32.375 25.375H28.4401C27.3971 22.2565 24.5516 19.8336 21 18.8536V16.625H32.375V25.375ZM9.625 42.875V35.875H25.375V42.875H9.625ZM3.5 42.875C3.01787 42.875 2.625 42.483 2.625 42V30.625H9.625V34.125H7.875V42.875H3.5ZM19.25 16.625V18.4966C18.6769 18.4205 18.0941 18.375 17.5 18.375C16.9067 18.375 16.3231 18.4205 15.75 18.4966V16.625H19.25ZM17.5 20.125C18.0959 20.125 18.6804 20.1723 19.25 20.2589V25.375H15.75V20.2589C16.3196 20.1723 16.9041 20.125 17.5 20.125ZM21 25.375V20.6727C23.5672 21.4979 25.6252 23.2024 26.5667 25.375H21ZM14.875 34.125V30.625H20.125V34.125H14.875ZM13.125 27.125V28.875H11.375V27.125H13.125ZM13.125 30.625V34.125H11.375V30.625H13.125ZM14.875 28.875V27.125H20.125V28.875H14.875ZM14 25.375H8.43325C9.37475 23.2032 11.4336 21.4988 14 20.6736V25.375ZM9.625 27.125V28.875H2.625V27.125H9.625ZM21.875 34.125V30.625H23.625V34.125H21.875ZM21.875 28.875V27.125H23.625V28.875H21.875ZM25.375 27.125H32.375V28.875H25.375V27.125ZM7.875 4.95862V2.625H27.125V4.95862L19.6875 14.875H15.3125L7.875 4.95862ZM3.5 16.625H14V18.8536C10.4493 19.8336 7.60288 22.2565 6.55988 25.375H2.625V17.5C2.625 17.0179 3.01787 16.625 3.5 16.625ZM5.25 53.375C4.28487 53.375 3.5 52.5901 3.5 51.625C3.5 50.6599 4.28487 49.875 5.25 49.875C6.21513 49.875 7 50.6599 7 51.625C7 52.5901 6.21513 53.375 5.25 53.375ZM6.125 48.2492C5.84325 48.1757 5.55363 48.125 5.25 48.125C4.94637 48.125 4.65675 48.1757 4.375 48.2492V44.625H6.125V48.2492ZM26.25 53.375C25.2849 53.375 24.5 52.5901 24.5 51.625C24.5 50.6599 25.2849 49.875 26.25 49.875C27.2151 49.875 28 50.6599 28 51.625C28 52.5901 27.2151 53.375 26.25 53.375ZM27.125 48.2492C26.8433 48.1757 26.5536 48.125 26.25 48.125C25.9464 48.125 25.6567 48.1757 25.375 48.2492V44.625H27.125V48.2492ZM27.125 42.875V34.125H25.375V30.625H32.375V42.875H27.125ZM51.625 44.625V48.2492C51.3433 48.1757 51.0536 48.125 50.75 48.125C50.4464 48.125 50.1567 48.1757 49.875 48.2492V44.625H51.625ZM50.75 53.375C49.7849 53.375 49 52.5901 49 51.625C49 50.6599 49.7849 49.875 50.75 49.875C51.7151 49.875 52.5 50.6599 52.5 51.625C52.5 52.5901 51.7151 53.375 50.75 53.375ZM52.5 42.875H34.125V14.875H53.375V42C53.375 42.483 52.9821 42.875 52.5 42.875Z" fill="black" fill-opacity="0.5"/>
<path d="M35.875 28.875H51.625V16.625H35.875V28.875ZM37.625 27.125V21.875H39.7092L41.8915 26.2395L44.2181 22.75H49.875V27.125H37.625ZM49.875 18.375V21H43.2819L42.1085 22.7605L40.7908 20.125H37.625V18.375H49.875Z" fill="black" fill-opacity="0.5"/>
<path d="M42 30.625C40.5527 30.625 39.375 31.8027 39.375 33.25C39.375 34.6972 40.5527 35.875 42 35.875C43.4472 35.875 44.625 34.6972 44.625 33.25C44.625 31.8027 43.4472 30.625 42 30.625ZM42 34.125C41.5179 34.125 41.125 33.733 41.125 33.25C41.125 32.767 41.5179 32.375 42 32.375C42.4821 32.375 42.875 32.767 42.875 33.25C42.875 33.733 42.4821 34.125 42 34.125Z" fill="black" fill-opacity="0.5"/>
<path d="M49 30.625C47.5527 30.625 46.375 31.8027 46.375 33.25C46.375 34.6972 47.5527 35.875 49 35.875C50.4472 35.875 51.625 34.6972 51.625 33.25C51.625 31.8027 50.4472 30.625 49 30.625ZM49 34.125C48.5179 34.125 48.125 33.733 48.125 33.25C48.125 32.767 48.5179 32.375 49 32.375C49.4821 32.375 49.875 32.767 49.875 33.25C49.875 33.733 49.4821 34.125 49 34.125Z" fill="black" fill-opacity="0.5"/>
</svg>
