<svg width="56" height="56" viewBox="0 0 56 56" fill="none" xmlns="http://www.w3.org/2000/svg">
<path d="M1.75 55.125H22.75C22.8649 55.1251 22.9787 55.1025 23.0849 55.0585C23.1911 55.0146 23.2876 54.9501 23.3689 54.8689C23.4501 54.7876 23.5146 54.6911 23.5585 54.5849C23.6025 54.4787 23.6251 54.3649 23.625 54.25V49C23.6217 48.0763 23.3256 47.1775 22.7793 46.4328C22.2329 45.688 21.4645 45.1357 20.5845 44.8552C21.1333 44.1686 21.4339 43.3165 21.4375 42.4375C21.4375 41.3932 21.0227 40.3917 20.2842 39.6533C19.5458 38.9148 18.5443 38.5 17.5 38.5C16.4557 38.5 15.4542 38.9148 14.7158 39.6533C13.9773 40.3917 13.5625 41.3932 13.5625 42.4375C13.5661 43.3165 13.8667 44.1686 14.4155 44.8552C13.5504 45.1331 12.7934 45.6738 12.25 46.4021C11.7066 45.6738 10.9496 45.1331 10.0845 44.8552C10.6333 44.1686 10.9339 43.3165 10.9375 42.4375C10.9375 41.3932 10.5227 40.3917 9.78423 39.6533C9.04581 38.9148 8.04429 38.5 7 38.5C5.95571 38.5 4.95419 38.9148 4.21577 39.6533C3.47734 40.3917 3.0625 41.3932 3.0625 42.4375C3.06611 43.3165 3.36672 44.1686 3.91555 44.8552C3.0355 45.1357 2.26706 45.688 1.72072 46.4328C1.17438 47.1775 0.87828 48.0763 0.875 49V54.25C0.874935 54.3649 0.897522 54.4787 0.941472 54.5849C0.985422 54.6911 1.04987 54.7876 1.13114 54.8689C1.2124 54.9501 1.30889 55.0146 1.41507 55.0585C1.52126 55.1025 1.63508 55.1251 1.75 55.125ZM17.5 40.25C17.9326 40.25 18.3556 40.3783 18.7153 40.6187C19.075 40.859 19.3554 41.2007 19.521 41.6004C19.6866 42.0001 19.7299 42.4399 19.6455 42.8643C19.5611 43.2886 19.3527 43.6784 19.0468 43.9843C18.7409 44.2902 18.3511 44.4986 17.9268 44.583C17.5024 44.6674 17.0626 44.6241 16.6629 44.4585C16.2632 44.2929 15.9215 44.0125 15.6812 43.6528C15.4408 43.2931 15.3125 42.8701 15.3125 42.4375C15.313 41.8575 15.5437 41.3014 15.9538 40.8913C16.3639 40.4812 16.92 40.2505 17.5 40.25ZM13.125 49C13.1258 48.304 13.4026 47.6368 13.8947 47.1447C14.3868 46.6526 15.054 46.3758 15.75 46.375H19.25C19.946 46.3758 20.6132 46.6526 21.1053 47.1447C21.5974 47.6368 21.8742 48.304 21.875 49V53.375H13.125V49ZM7 40.25C7.43265 40.25 7.85558 40.3783 8.21531 40.6187C8.57504 40.859 8.85542 41.2007 9.02099 41.6004C9.18655 42.0001 9.22987 42.4399 9.14547 42.8643C9.06106 43.2886 8.85272 43.6784 8.5468 43.9843C8.24087 44.2902 7.85109 44.4986 7.42676 44.583C7.00243 44.6674 6.56259 44.6241 6.16288 44.4585C5.76317 44.2929 5.42153 44.0125 5.18116 43.6528C4.94079 43.2931 4.8125 42.8701 4.8125 42.4375C4.81304 41.8575 5.04368 41.3014 5.45379 40.8913C5.86391 40.4812 6.42 40.2505 7 40.25ZM2.625 49C2.62576 48.304 2.90257 47.6368 3.39468 47.1447C3.8868 46.6526 4.55404 46.3758 5.25 46.375H8.75C9.44596 46.3758 10.1132 46.6526 10.6053 47.1447C11.0974 47.6368 11.3742 48.304 11.375 49V53.375H2.625V49Z" fill="black" fill-opacity="0.5"/>
<path d="M52.0845 44.8552C52.6333 44.1686 52.9339 43.3165 52.9375 42.4375C52.9375 41.3932 52.5227 40.3917 51.7842 39.6533C51.0458 38.9148 50.0443 38.5 49 38.5C47.9557 38.5 46.9542 38.9148 46.2158 39.6533C45.4773 40.3917 45.0625 41.3932 45.0625 42.4375C45.0661 43.3165 45.3667 44.1686 45.9155 44.8552C45.0355 45.1357 44.2671 45.688 43.7207 46.4328C43.1744 47.1775 42.8783 48.0763 42.875 49V54.25C42.8749 54.3649 42.8975 54.4787 42.9415 54.5849C42.9854 54.6911 43.0499 54.7876 43.1311 54.8689C43.2124 54.9501 43.3089 55.0146 43.4151 55.0585C43.5213 55.1025 43.6351 55.1251 43.75 55.125H54.25C54.3649 55.1251 54.4787 55.1025 54.5849 55.0585C54.6911 55.0146 54.7876 54.9501 54.8689 54.8689C54.9501 54.7876 55.0146 54.6911 55.0585 54.5849C55.1025 54.4787 55.1251 54.3649 55.125 54.25V49C55.1217 48.0763 54.8256 47.1775 54.2793 46.4328C53.7329 45.688 52.9645 45.1357 52.0845 44.8552ZM49 40.25C49.4326 40.25 49.8556 40.3783 50.2153 40.6187C50.575 40.859 50.8554 41.2007 51.021 41.6004C51.1866 42.0001 51.2299 42.4399 51.1455 42.8643C51.0611 43.2886 50.8527 43.6784 50.5468 43.9843C50.2409 44.2902 49.8511 44.4986 49.4268 44.583C49.0024 44.6674 48.5626 44.6241 48.1629 44.4585C47.7632 44.2929 47.4215 44.0125 47.1812 43.6528C46.9408 43.2931 46.8125 42.8701 46.8125 42.4375C46.813 41.8575 47.0437 41.3014 47.4538 40.8913C47.8639 40.4812 48.42 40.2505 49 40.25ZM53.375 53.375H44.625V49C44.6258 48.304 44.9026 47.6368 45.3947 47.1447C45.8868 46.6526 46.554 46.3758 47.25 46.375H50.75C51.446 46.3758 52.1132 46.6526 52.6053 47.1447C53.0974 47.6368 53.3742 48.304 53.375 49V53.375Z" fill="black" fill-opacity="0.5"/>
<path d="M53.375 28V1.75C53.3751 1.63508 53.3525 1.52126 53.3085 1.41507C53.2646 1.30889 53.2001 1.2124 53.1189 1.13114C53.0376 1.04987 52.9411 0.985422 52.8349 0.941472C52.7287 0.897522 52.6149 0.874935 52.5 0.875H3.5C3.38508 0.874935 3.27126 0.897522 3.16507 0.941472C3.05889 0.985422 2.9624 1.04987 2.88114 1.13114C2.79987 1.2124 2.73542 1.30889 2.69147 1.41507C2.64752 1.52126 2.62493 1.63508 2.625 1.75V28C2.62493 28.1149 2.64752 28.2287 2.69147 28.3349C2.73542 28.4411 2.79987 28.5376 2.88114 28.6189C2.9624 28.7001 3.05889 28.7646 3.16507 28.8085C3.27126 28.8525 3.38508 28.8751 3.5 28.875H52.5C52.6149 28.8751 52.7287 28.8525 52.8349 28.8085C52.9411 28.7646 53.0376 28.7001 53.1189 28.6189C53.2001 28.5376 53.2646 28.4411 53.3085 28.3349C53.3525 28.2287 53.3751 28.1149 53.375 28ZM51.625 27.125H4.375V2.625H51.625V27.125Z" fill="black" fill-opacity="0.5"/>
<path d="M44.625 37.625V32.375C44.6244 31.9111 44.4398 31.4663 44.1118 31.1382C43.7837 30.8102 43.3389 30.6256 42.875 30.625H35.875C35.4111 30.6256 34.9663 30.8102 34.6382 31.1382C34.3102 31.4663 34.1256 31.9111 34.125 32.375V37.625C34.1256 38.0889 34.3102 38.5337 34.6382 38.8618C34.9663 39.1898 35.4111 39.3744 35.875 39.375H37.3182L41.4531 42.6836C41.5961 42.798 41.7713 42.8646 41.9542 42.8741C42.137 42.8837 42.3182 42.8356 42.4723 42.7367C42.6264 42.6379 42.7455 42.4931 42.813 42.3229C42.8805 42.1528 42.8929 41.9657 42.8485 41.7881L42.2461 39.375H42.875C43.3389 39.3744 43.7837 39.1898 44.1118 38.8618C44.4398 38.5337 44.6244 38.0889 44.625 37.625ZM41.125 37.625C40.9921 37.625 40.8609 37.6553 40.7414 37.7136C40.622 37.7719 40.5174 37.8567 40.4356 37.9615C40.3538 38.0662 40.297 38.1883 40.2694 38.3183C40.2418 38.4484 40.2442 38.583 40.2765 38.7119L40.5226 39.6972L38.1719 37.8164C38.0165 37.6925 37.8237 37.625 37.625 37.625H35.875V32.375H42.875L42.8767 37.625H41.125Z" fill="black" fill-opacity="0.5"/>
<path d="M24.0275 42.7366C24.1817 42.8353 24.3629 42.8833 24.5457 42.8738C24.7285 42.8643 24.9038 42.7978 25.0469 42.6836L29.1818 39.375H30.625C31.0889 39.3744 31.5337 39.1898 31.8618 38.8618C32.1898 38.5337 32.3744 38.0889 32.375 37.625V32.375C32.3744 31.9111 32.1898 31.4663 31.8618 31.1382C31.5337 30.8102 31.0889 30.6256 30.625 30.625H23.625C23.1611 30.6256 22.7163 30.8102 22.3882 31.1382C22.0602 31.4663 21.8756 31.9111 21.875 32.375V37.625C21.8756 38.0889 22.0602 38.5337 22.3882 38.8618C22.7163 39.1898 23.1611 39.3744 23.625 39.375H24.2539L23.6515 41.7881C23.6069 41.9656 23.6192 42.1527 23.6867 42.3229C23.7541 42.4931 23.8733 42.6378 24.0275 42.7366ZM23.625 37.625V32.375H30.625V37.625H28.875C28.6763 37.625 28.4835 37.6925 28.3281 37.8164L25.9774 39.6971L26.2235 38.7119C26.2558 38.5829 26.2582 38.4483 26.2306 38.3183C26.203 38.1883 26.1462 38.0662 26.0644 37.9615C25.9826 37.8567 25.878 37.7719 25.7585 37.7136C25.6391 37.6553 25.5079 37.625 25.375 37.625H23.625Z" fill="black" fill-opacity="0.5"/>
<path d="M36.854 11.1904C36.6481 12.1812 36.7355 13.2105 37.1055 14.1523C37.4755 15.0942 38.112 15.9077 38.9373 16.4934V18.375C38.938 19.071 39.2148 19.7382 39.7069 20.2303C40.1991 20.7224 40.8663 20.9992 41.5623 21H42.4373C43.1332 20.9992 43.8005 20.7224 44.2926 20.2303C44.7847 19.7382 45.0615 19.071 45.0623 18.375V16.4917C45.7538 15.9922 46.313 15.3315 46.6914 14.5669C47.0698 13.8023 47.2559 12.957 47.2337 12.1042C47.2114 11.2514 46.9815 10.417 46.5638 9.67316C46.146 8.92936 45.5532 8.2987 44.8366 7.83588C44.12 7.37306 43.3012 7.09206 42.4515 7.01725C41.6017 6.94243 40.7465 7.07607 39.96 7.40656C39.1736 7.73706 38.4796 8.25443 37.9384 8.9138C37.3971 9.57318 37.0249 10.3546 36.854 11.1904ZM42.4373 19.25H41.5623C41.3302 19.2498 41.1078 19.1576 40.9437 18.9935C40.7797 18.8295 40.6874 18.607 40.6873 18.375H43.3123C43.3121 18.607 43.2199 18.8295 43.0558 18.9935C42.8917 19.1576 42.6693 19.2498 42.4373 19.25ZM38.5706 11.5314C38.7055 10.8721 39.0287 10.2661 39.5009 9.78667C39.9732 9.30728 40.5743 8.97509 41.2315 8.83032C41.4864 8.77659 41.7461 8.74939 42.0065 8.74914C42.8076 8.74698 43.5845 9.02338 44.2043 9.53101C44.6452 9.88669 44.9926 10.3446 45.2165 10.865C45.4403 11.3854 45.5337 11.9525 45.4887 12.5172C45.4436 13.0819 45.2615 13.6271 44.958 14.1054C44.6545 14.5838 44.2388 14.9808 43.7471 15.2621C43.6148 15.339 43.5049 15.4494 43.4286 15.5821C43.3523 15.7148 43.3121 15.8652 43.3122 16.0183V16.625H40.6872V16.0183C40.6873 15.8652 40.6471 15.7148 40.5708 15.5821C40.4945 15.4494 40.3846 15.339 40.2523 15.2621C39.614 14.8974 39.1076 14.34 38.8055 13.6699C38.5034 12.9997 38.4212 12.2511 38.5707 11.5314H38.5706Z" fill="black" fill-opacity="0.5"/>
<path d="M41.125 4.375H42.875V6.125H41.125V4.375Z" fill="black" fill-opacity="0.5"/>
<path d="M48.125 10.5H49.875V12.25H48.125V10.5Z" fill="black" fill-opacity="0.5"/>
<path d="M34.125 10.5H35.875V12.25H34.125V10.5Z" fill="black" fill-opacity="0.5"/>
<path d="M35.8076 6.74655L37.0451 5.50911L38.2825 6.74655L37.0451 7.98399L35.8076 6.74655Z" fill="black" fill-opacity="0.5"/>
<path d="M45.707 6.74831L46.9445 5.51087L48.1819 6.74831L46.9445 7.98574L45.707 6.74831Z" fill="black" fill-opacity="0.5"/>
<path d="M14.1049 20.09H14.151C14.8444 20.0813 15.5197 19.8671 16.0914 19.4745C16.6631 19.082 17.1056 18.5287 17.3628 17.8846C17.62 17.2406 17.6804 16.5347 17.5364 15.8564C17.3924 15.178 17.0505 14.5575 16.5538 14.0735C15.887 13.4261 14.9915 13.0683 14.0621 13.078C13.1362 13.0895 12.2524 13.4669 11.6037 14.1277C10.955 14.7886 10.594 15.6792 10.5997 16.6052C10.6053 17.5312 10.9771 18.4174 11.6338 19.0703C12.2905 19.7232 13.1788 20.0898 14.1049 20.09ZM12.8488 15.3587C13.0093 15.1928 13.2012 15.0605 13.4133 14.9694C13.6254 14.8783 13.8535 14.8302 14.0843 14.828H14.1083C14.5718 14.8286 15.0164 15.0125 15.3449 15.3395C15.6734 15.6666 15.8593 16.1103 15.8621 16.5738C15.8648 17.0374 15.6841 17.4832 15.3594 17.8141C15.0347 18.1449 14.5923 18.334 14.1288 18.34C13.6657 18.3337 13.2213 18.1562 12.8812 17.8418C12.716 17.6809 12.5841 17.4891 12.4931 17.2772C12.402 17.0653 12.3536 16.8376 12.3506 16.607C12.3476 16.3764 12.39 16.1474 12.4755 15.9333C12.561 15.7191 12.6878 15.5238 12.8488 15.3587Z" fill="black" fill-opacity="0.5"/>
<path d="M6.28085 18.3827C6.22075 18.6068 6.2521 18.8456 6.36801 19.0466L8.11801 22.0784C8.23421 22.2793 8.42536 22.4258 8.64951 22.486C8.87374 22.5442 9.11183 22.5129 9.31344 22.3988L10.5602 21.6451C10.8375 21.8396 11.1314 22.0091 11.4386 22.1519V23.625C11.4385 23.7399 11.4611 23.8537 11.505 23.9599C11.549 24.0661 11.6134 24.1626 11.6947 24.2439C11.776 24.3251 11.8725 24.3896 11.9786 24.4335C12.0848 24.4775 12.1986 24.5001 12.3136 24.5H15.8136C15.9285 24.5001 16.0423 24.4775 16.1485 24.4335C16.2547 24.3896 16.3512 24.3251 16.4324 24.2439C16.5137 24.1626 16.5781 24.0661 16.6221 23.9599C16.666 23.8537 16.6886 23.7399 16.6886 23.625L16.6544 22.1698C16.9633 22.0269 17.2589 21.8571 17.5379 21.6622L18.8128 22.3988C19.0144 22.5131 19.2525 22.5443 19.4768 22.486C19.7009 22.4258 19.892 22.2793 20.0082 22.0784L21.7582 19.0466C21.8741 18.8456 21.9055 18.6068 21.8454 18.3826C21.7853 18.1585 21.6387 17.9673 21.4378 17.8512L20.1672 17.118C20.1817 16.9523 20.1889 16.7879 20.1886 16.625C20.1886 16.4618 20.1814 16.2974 20.1672 16.132L21.4378 15.3988C21.6387 15.2827 21.7853 15.0915 21.8454 14.8674C21.9055 14.6432 21.8741 14.4044 21.7583 14.2034L20.0083 11.1716C19.8921 10.9707 19.701 10.8241 19.4769 10.7641C19.2527 10.704 19.0139 10.7353 18.8128 10.8512L17.5661 11.6049C17.289 11.4106 16.9953 11.2411 16.6886 11.0981V9.625C16.6886 9.51008 16.666 9.39626 16.6221 9.29007C16.5781 9.18388 16.5137 9.0874 16.4324 9.00614C16.3512 8.92487 16.2547 8.86042 16.1485 8.81647C16.0423 8.77252 15.9285 8.74993 15.8136 8.75H12.3136C12.1986 8.74993 12.0848 8.77252 11.9786 8.81647C11.8725 8.86042 11.776 8.92487 11.6947 9.00613C11.6134 9.0874 11.549 9.18388 11.505 9.29007C11.4611 9.39626 11.4385 9.51007 11.4386 9.625L11.4719 11.0802C11.163 11.2231 10.8674 11.3929 10.5884 11.5878L9.31348 10.8512C9.11242 10.7353 8.8736 10.704 8.64946 10.7641C8.42532 10.8241 8.23418 10.9707 8.11804 11.1716L6.36804 14.2034C6.25216 14.4044 6.22082 14.6432 6.2809 14.8674C6.34099 15.0915 6.48758 15.2827 6.68848 15.3988L7.95997 16.132C7.94544 16.2986 7.93861 16.4635 7.93861 16.625C7.93861 16.7865 7.94544 16.9514 7.95997 17.118L6.68848 17.8512C6.48758 17.9674 6.34098 18.1585 6.28085 18.3827ZM9.76462 17.4248C9.66322 16.8964 9.66322 16.3536 9.76462 15.8252C9.79735 15.6475 9.77427 15.4641 9.69853 15.3C9.62279 15.136 9.49812 14.9995 9.34164 14.9092L8.32139 14.3204L9.19639 12.8046L9.71421 13.1045C9.99615 13.2691 10.3189 13.3506 10.6452 13.3396C10.9715 13.3286 11.288 13.2254 11.5582 13.0421C11.7648 12.8986 11.9832 12.7728 12.211 12.6661C12.5057 12.5242 12.754 12.3014 12.9271 12.0238C13.1001 11.7463 13.1908 11.4252 13.1886 11.0981V10.5H14.9386V11.0981C14.9365 11.4256 15.0274 11.747 15.2008 12.0249C15.3741 12.3027 15.6228 12.5257 15.9178 12.6678C16.1443 12.7735 16.3613 12.8985 16.5664 13.0413C16.8368 13.2252 17.1538 13.3286 17.4806 13.3397C17.8075 13.3507 18.1307 13.2689 18.4129 13.1036L18.9299 12.8046L19.8049 14.3204L18.7847 14.9092C18.6282 14.9995 18.5035 15.136 18.4278 15.3C18.352 15.4641 18.329 15.6475 18.3617 15.8252C18.4642 16.3535 18.4642 16.8965 18.3617 17.4248C18.329 17.6025 18.352 17.7859 18.4278 17.95C18.5035 18.114 18.6282 18.2505 18.7847 18.3408L19.8049 18.9296L18.9299 20.4454L18.4129 20.1464C18.1311 19.9812 17.8081 19.8993 17.4816 19.9102C17.1551 19.9211 16.8384 20.0243 16.5681 20.2079C16.3615 20.3514 16.1431 20.4772 15.9153 20.5839C15.6208 20.726 15.3727 20.9488 15.1998 21.2264C15.0269 21.504 14.9363 21.8249 14.9386 22.1519V22.75H13.1886V22.1519C13.1907 21.8242 13.0996 21.5028 12.9261 21.2249C12.7526 20.947 12.5037 20.7241 12.2085 20.5821C11.982 20.4764 11.765 20.3515 11.5599 20.2087C11.2894 20.0252 10.9724 19.9219 10.6456 19.9109C10.3189 19.8999 9.99569 19.9815 9.71336 20.1463L9.19639 20.4454L8.32139 18.9295L9.34164 18.3408C9.49811 18.2505 9.62278 18.1139 9.69852 17.9499C9.77425 17.7859 9.79734 17.6025 9.76462 17.4248Z" fill="black" fill-opacity="0.5"/>
<path d="M41.125 22.75H42.875V24.5H41.125V22.75Z" fill="black" fill-opacity="0.5"/>
<path d="M37.625 22.75H39.375V24.5H37.625V22.75Z" fill="black" fill-opacity="0.5"/>
<path d="M34.125 22.75H35.875V24.5H34.125V22.75Z" fill="black" fill-opacity="0.5"/>
<path d="M30.625 22.75H32.375V24.5H30.625V22.75Z" fill="black" fill-opacity="0.5"/>
<path d="M30.625 19.25H32.375V21H30.625V19.25Z" fill="black" fill-opacity="0.5"/>
<path d="M30.625 15.75H32.375V17.5H30.625V15.75Z" fill="black" fill-opacity="0.5"/>
<path d="M27.125 15.75H28.875V17.5H27.125V15.75Z" fill="black" fill-opacity="0.5"/>
<path d="M23.625 15.75H25.375V17.5H23.625V15.75Z" fill="black" fill-opacity="0.5"/>
</svg>
