<svg width="54" height="54" viewBox="0 0 54 54" fill="none" xmlns="http://www.w3.org/2000/svg">
<path d="M14.75 20.875H13V22.625H14.75V20.875Z" fill="black" fill-opacity="0.5"/>
<path d="M23.5 20.875H21.75V22.625H23.5V20.875Z" fill="black" fill-opacity="0.5"/>
<path d="M52.4993 30.5087L49.0807 30.0205C48.9181 29.5424 48.7261 29.0749 48.5058 28.6205L50.5743 25.8625C50.7006 25.694 50.762 25.4856 50.747 25.2755C50.7321 25.0654 50.6418 24.8678 50.4929 24.7189L46.7803 21.0062C46.6377 20.8646 46.4502 20.7771 46.25 20.7586V12.3359C47.0687 11.6804 47.7297 10.8494 48.184 9.90416C48.6384 8.95895 48.8745 7.92373 48.875 6.87499C48.8831 5.54891 48.5103 4.24839 47.801 3.12792C47.0917 2.00744 46.0757 1.1141 44.8737 0.553995C44.7403 0.491027 44.5932 0.462782 44.446 0.471883C44.2989 0.480984 44.1564 0.527137 44.0318 0.606053C43.9072 0.684969 43.8046 0.794089 43.7335 0.923277C43.6624 1.05246 43.6251 1.19753 43.625 1.34499V6.24499L41.875 6.82862L40.125 6.24499V1.34499C40.1244 1.19783 40.0867 1.05319 40.0153 0.924476C39.944 0.795761 39.8413 0.687122 39.7168 0.608613C39.5924 0.530104 39.4501 0.484261 39.3032 0.475325C39.1563 0.46639 39.0095 0.494652 38.8764 0.557495C37.6749 1.11735 36.6593 2.01015 35.9501 3.12994C35.2408 4.24973 34.8677 5.5495 34.875 6.87499C34.8756 7.92373 35.1117 8.95895 35.5661 9.90416C36.0204 10.8494 36.6814 11.6804 37.5 12.3359V18.25H34.875C34.6645 18.25 34.461 18.3259 34.3019 18.4638C34.1428 18.6017 34.0387 18.7923 34.0088 19.0007L33.4427 22.9636L35.1752 23.2112L35.6337 20H39.3664L39.8249 23.2112C39.8488 23.3776 39.9201 23.5336 40.0303 23.6605C40.1404 23.7874 40.2848 23.88 40.4462 23.927C41.1755 24.1377 41.8796 24.4273 42.5462 24.7906C42.6936 24.8715 42.8613 24.9081 43.029 24.8962C43.1968 24.8842 43.3575 24.8242 43.4921 24.7232L46.0829 22.7807L48.7219 25.4197L46.775 28.0106C46.6741 28.1451 46.6141 28.3059 46.6021 28.4736C46.5902 28.6414 46.6268 28.809 46.7077 28.9565C47.071 29.623 47.3606 30.3272 47.5713 31.0565C47.6183 31.2178 47.7108 31.3622 47.8378 31.4724C47.9647 31.5826 48.1207 31.6539 48.287 31.6777L51.4983 32.1362V35.869L48.287 36.3275C48.1207 36.3514 47.9647 36.4226 47.8378 36.5328C47.7108 36.643 47.6183 36.7874 47.5713 36.9487C47.3606 37.678 47.071 38.3822 46.7077 39.0487C46.6268 39.1962 46.5902 39.3638 46.6021 39.5316C46.6141 39.6993 46.6741 39.8601 46.775 39.9946L48.7175 42.5855L46.0786 45.2245L43.4894 43.275C43.3549 43.174 43.1942 43.114 43.0264 43.1021C42.8587 43.0901 42.691 43.1268 42.5435 43.2076C41.877 43.5709 41.1728 43.8605 40.4436 44.0712C40.2822 44.1183 40.1378 44.2108 40.0276 44.3377C39.9175 44.4646 39.8462 44.6206 39.8223 44.787L39.3664 48H35.75V44.2996C35.7494 43.3752 35.6168 42.4557 35.3563 41.5687C37.0229 42.0567 38.8033 41.987 40.4267 41.3702C42.0501 40.7535 43.4277 39.6235 44.35 38.1521C45.2723 36.6807 45.6889 34.9483 45.5364 33.2184C45.3838 31.4885 44.6705 29.8558 43.505 28.5685C42.3394 27.2811 40.7853 26.4096 39.0791 26.0865C37.3728 25.7634 35.6077 26.0063 34.0521 26.7784C32.4966 27.5504 31.2357 28.8093 30.4613 30.3637C29.6868 31.918 29.4411 33.6827 29.7615 35.3895C29.7405 35.3807 29.7204 35.3702 29.6994 35.3624L22.625 32.5326V31.1877C23.7943 30.5896 24.8299 29.7602 25.6692 28.75H27.875C28.5712 28.75 29.2389 28.4734 29.7312 27.9811C30.2235 27.4889 30.5 26.8212 30.5 26.125V24.214C31.0101 24.0337 31.452 23.7002 31.7652 23.2591C32.0785 22.818 32.2478 22.291 32.25 21.75V19.125C32.2478 18.584 32.0785 18.0569 31.7652 17.6159C31.452 17.1748 31.0101 16.8413 30.5 16.661V15.625C30.5 12.3761 29.2094 9.26026 26.9121 6.96294C24.6148 4.66562 21.499 3.37499 18.25 3.37499C15.0011 3.37499 11.8853 4.66562 9.58799 6.96294C7.29067 9.26026 6.00005 12.3761 6.00005 15.625V16.661C5.49 16.8413 5.04813 17.1748 4.73488 17.6159C4.42162 18.0569 4.25229 18.584 4.25005 19.125V21.75C4.25005 22.4462 4.52661 23.1139 5.01889 23.6061C5.51118 24.0984 6.17886 24.375 6.87505 24.375H8.62505C8.68105 24.375 8.7353 24.3662 8.79042 24.3627C9.05946 25.8135 9.65774 27.1832 10.5392 28.3664C11.4207 29.5496 12.5619 30.5148 13.875 31.1877V32.5326L6.80067 35.3624C5.01093 36.0717 3.47639 37.3037 2.3971 38.8979C1.31782 40.4921 0.74386 42.3745 0.75005 44.2996V52.375C0.75005 52.6071 0.842237 52.8296 1.00633 52.9937C1.17043 53.1578 1.39299 53.25 1.62505 53.25H34.875C35.1071 53.25 35.3297 53.1578 35.4938 52.9937C35.6579 52.8296 35.75 52.6071 35.75 52.375V49.75H40.125C40.3356 49.75 40.5391 49.6741 40.6982 49.5362C40.8573 49.3983 40.9614 49.2077 40.9913 48.9992L41.4795 45.5806C41.9576 45.418 42.4252 45.226 42.8795 45.0057L45.6376 47.0742C45.8061 47.2006 46.0145 47.2619 46.2245 47.247C46.4346 47.232 46.6323 47.1418 46.7812 46.9929L50.4938 43.2802C50.6427 43.1313 50.7329 42.9337 50.7479 42.7236C50.7628 42.5135 50.7015 42.3051 50.5752 42.1366L48.5067 39.3786C48.727 38.9242 48.919 38.4567 49.0816 37.9786L52.5002 37.4904C52.7083 37.4603 52.8986 37.3563 53.0363 37.1974C53.174 37.0385 53.2499 36.8353 53.25 36.625V31.375C53.2501 31.1644 53.1742 30.9609 53.0363 30.8018C52.8984 30.6427 52.7077 30.5386 52.4993 30.5087ZM42.8743 22.9942C42.8332 22.9741 42.7868 22.961 42.7457 22.9417V12.125H41V19.0637L40.9913 19.0007C40.9614 18.7923 40.8573 18.6017 40.6982 18.4638C40.5391 18.3259 40.3356 18.25 40.125 18.25H39.25V11.8975C39.2501 11.7564 39.2159 11.6173 39.1506 11.4922C39.0852 11.3671 38.9905 11.2597 38.8747 11.1791C38.2242 10.7263 37.6848 10.1321 37.2967 9.441C36.9087 8.74994 36.6821 7.98 36.634 7.1889C36.586 6.39781 36.7176 5.6061 37.0191 4.87314C37.3207 4.14019 37.7842 3.48501 38.375 2.95674V6.87499C38.375 7.05871 38.4328 7.23779 38.5402 7.38683C38.6476 7.53587 38.7992 7.64731 38.9735 7.70537L41.5985 8.58037C41.778 8.64015 41.9721 8.64015 42.1516 8.58037L44.7766 7.70537C44.9509 7.64731 45.1025 7.53587 45.2099 7.38683C45.3173 7.23779 45.3751 7.05871 45.375 6.87499V2.95674C45.9664 3.485 46.4303 4.14033 46.7322 4.87355C47.034 5.60677 47.1658 6.39883 47.1177 7.19028C47.0697 7.98173 46.8429 8.75201 46.4546 9.44331C46.0662 10.1346 45.5263 10.7289 44.8754 11.1817C44.7599 11.2621 44.6655 11.3691 44.6002 11.4937C44.5348 11.6183 44.5005 11.7568 44.5 11.8975V21.7789L42.8743 22.9942ZM31.375 34C31.3654 32.6318 31.8109 31.2993 32.6414 30.212C33.4719 29.1247 34.6403 28.3444 35.9628 27.9938C37.2853 27.6432 38.6869 27.7422 39.947 28.2752C41.207 28.8083 42.2542 29.7451 42.9236 30.9383C43.593 32.1316 43.8467 33.5135 43.6449 34.8667C43.443 36.2199 42.797 37.4676 41.8085 38.4135C40.82 39.3594 39.545 39.9499 38.1842 40.092C36.8234 40.234 35.454 39.9197 34.2914 39.1984C33.6865 38.2294 32.9127 37.3768 32.0068 36.681C31.5905 35.8486 31.3742 34.9306 31.375 34ZM27.875 27H26.8128C27.2392 26.1695 27.5414 25.281 27.7097 24.3627C27.7648 24.3627 27.819 24.375 27.875 24.375H28.75V26.125C28.75 26.3571 28.6579 26.5796 28.4938 26.7437C28.3297 26.9078 28.1071 27 27.875 27ZM26.125 17.375C25.7177 17.374 25.3161 17.2787 24.9518 17.0965C24.5875 16.9143 24.2703 16.6503 24.0251 16.325L22.4501 14.225C22.3797 14.1312 22.2913 14.0526 22.19 13.9936C22.0887 13.9347 21.9766 13.8968 21.8603 13.882C21.744 13.8677 21.626 13.8767 21.5132 13.9084C21.4004 13.9401 21.295 13.9939 21.2032 14.0666L18.2667 16.4125C17.4919 17.0325 16.5299 17.3718 15.5375 17.375H10.375V16.5C10.375 14.4114 11.2047 12.4084 12.6816 10.9315C14.1584 9.45468 16.1615 8.62499 18.25 8.62499C20.3386 8.62499 22.3417 9.45468 23.8185 10.9315C25.2954 12.4084 26.125 14.4114 26.125 16.5V17.375ZM30.5 21.75C30.5 21.9821 30.4079 22.2046 30.2438 22.3687C30.0797 22.5328 29.8571 22.625 29.625 22.625H27.875V18.25H29.625C29.8571 18.25 30.0797 18.3422 30.2438 18.5063C30.4079 18.6704 30.5 18.8929 30.5 19.125V21.75ZM18.25 5.12499C21.0339 5.12801 23.7029 6.23522 25.6713 8.2037C27.6398 10.1722 28.747 12.8411 28.75 15.625V16.5H27.875C27.875 13.9473 26.861 11.4991 25.056 9.69409C23.2509 7.88905 20.8028 6.87499 18.25 6.87499C15.6973 6.87499 13.2492 7.88905 11.4441 9.69409C9.63911 11.4991 8.62505 13.9473 8.62505 16.5H7.75005V15.625C7.75306 12.8411 8.86027 10.1722 10.8288 8.2037C12.7972 6.23522 15.4662 5.12801 18.25 5.12499ZM6.87505 22.625C6.64299 22.625 6.42043 22.5328 6.25633 22.3687C6.09224 22.2046 6.00005 21.9821 6.00005 21.75V19.125C6.00005 18.8929 6.09224 18.6704 6.25633 18.5063C6.42043 18.3422 6.64299 18.25 6.87505 18.25H8.62505V22.625H6.87505ZM10.375 22.625V19.125H15.5375C16.9278 19.1231 18.2764 18.65 19.363 17.7827L21.5952 15.9969L22.625 17.375C23.0337 17.9171 23.5624 18.3572 24.1696 18.6608C24.7769 18.9644 25.4462 19.1233 26.125 19.125V22.625C26.1265 24.1834 25.6628 25.7067 24.7933 27H18.25V28.75H23.1885C22.033 29.6843 20.6365 30.2722 19.1606 30.4457C17.6848 30.6192 16.19 30.3712 14.8493 29.7303C13.5086 29.0894 12.3768 28.0819 11.585 26.8245C10.7931 25.567 10.3737 24.111 10.375 22.625ZM18.25 32.25C19.1381 32.2478 20.0215 32.1224 20.875 31.8772V33.125C20.875 33.8212 20.5985 34.4889 20.1062 34.9811C19.6139 35.4734 18.9462 35.75 18.25 35.75C17.5539 35.75 16.8862 35.4734 16.3939 34.9811C15.9016 34.4889 15.6251 33.8212 15.625 33.125V31.8772C16.4786 32.1224 17.362 32.2478 18.25 32.25ZM34 51.5H28.75V41.875H27V51.5H9.50005V41.875H7.75005V51.5H2.50005V44.2996C2.49496 42.7244 2.96457 41.1843 3.84767 39.8799C4.73077 38.5755 5.98638 37.5675 7.4508 36.9872L14.0684 34.3404C14.3268 35.2502 14.8749 36.0509 15.6296 36.6211C16.3842 37.1913 17.3042 37.4998 18.25 37.4998C19.1959 37.4998 20.1159 37.1913 20.8705 36.6211C21.6252 36.0509 22.1733 35.2502 22.4317 34.3404L29.0493 36.9872C30.5137 37.5675 31.7693 38.5755 32.6524 39.8799C33.5355 41.1843 34.0051 42.7244 34 44.2996V51.5Z" fill="black" fill-opacity="0.5"/>
<path d="M38.375 21.75H36.625V23.5H38.375V21.75Z" fill="black" fill-opacity="0.5"/>
<path d="M38.375 44.5H36.625V46.25H38.375V44.5Z" fill="black" fill-opacity="0.5"/>
<path d="M45.5421 40.8061L44.3047 42.0435L45.5421 43.281L46.7796 42.0435L45.5421 40.8061Z" fill="black" fill-opacity="0.5"/>
<path d="M49.75 33.125H48V34.875H49.75V33.125Z" fill="black" fill-opacity="0.5"/>
<path d="M45.5431 24.7197L44.3057 25.9571L45.5431 27.1945L46.7805 25.9571L45.5431 24.7197Z" fill="black" fill-opacity="0.5"/>
</svg>
