<svg width="56" height="56" viewBox="0 0 56 56" fill="none" xmlns="http://www.w3.org/2000/svg">
<path d="M13.0668 36.8667C9.97838 36.8667 7.4668 39.3783 7.4668 42.4667C7.4668 45.5551 9.97838 48.0667 13.0668 48.0667C16.1552 48.0667 18.6668 45.5551 18.6668 42.4667C18.6668 39.3783 16.1551 36.8667 13.0668 36.8667ZM13.0668 46.2C11.0078 46.2 9.3335 44.5256 9.3335 42.4667C9.3335 40.4077 11.0079 38.7334 13.0668 38.7334C15.1257 38.7334 16.8001 40.4078 16.8001 42.4667C16.8001 44.5256 15.1257 46.2 13.0668 46.2Z" fill="black" fill-opacity="0.5"/>
<path d="M44.8002 36.8667C41.7118 36.8667 39.2002 39.3783 39.2002 42.4667C39.2002 45.5551 41.7118 48.0667 44.8002 48.0667C47.8886 48.0667 50.4002 45.5551 50.4002 42.4667C50.4002 39.3783 47.8886 36.8667 44.8002 36.8667ZM44.8002 46.2C42.7412 46.2 41.0669 44.5256 41.0669 42.4667C41.0669 40.4077 42.7413 38.7334 44.8002 38.7334C46.8592 38.7334 48.5335 40.4078 48.5335 42.4667C48.5335 44.5256 46.8592 46.2 44.8002 46.2Z" fill="black" fill-opacity="0.5"/>
<path d="M55.8517 31.6951L47.4517 18.6284C47.28 18.3615 46.9841 18.2 46.6667 18.2H36.4001C35.884 18.2 35.4668 18.6182 35.4668 19.1333V42.4666C35.4668 42.9827 35.884 43.3999 36.4001 43.3999H40.1334V41.5332H37.3334V20.0667H46.1571L54.1334 32.4744V41.5334H49.4667V43.4H55.0667C55.5828 43.4 56 42.9829 56 42.4667V32.2C56.0001 32.0217 55.9488 31.8453 55.8517 31.6951Z" fill="black" fill-opacity="0.5"/>
<path d="M41.0668 30.3333V23.8H48.5335V21.9333H40.1335C39.6174 21.9333 39.2002 22.3514 39.2002 22.8666V31.2666C39.2002 31.7827 39.6174 32.1999 40.1335 32.1999H54.1335V30.3332H41.0668V30.3333Z" fill="black" fill-opacity="0.5"/>
<path d="M36.4 11.6667H0.933297C0.418141 11.6667 0 12.0848 0 12.6V42.4667C0 42.9828 0.418141 43.4 0.933297 43.4H8.4V41.5333H1.8667V13.5333H35.4667V41.5333H17.7333V43.4H36.4C36.9161 43.4 37.3333 42.9828 37.3333 42.4667V12.6C37.3333 12.0848 36.9161 11.6667 36.4 11.6667Z" fill="black" fill-opacity="0.5"/>
<path d="M6.53359 37.8H0.933594V39.6667H6.53359V37.8Z" fill="black" fill-opacity="0.5"/>
<path d="M35.4663 37.8H19.5996V39.6667H35.4663V37.8Z" fill="black" fill-opacity="0.5"/>
<path d="M55.0663 37.8H51.333V39.6667H55.0663V37.8Z" fill="black" fill-opacity="0.5"/>
<path d="M36.4001 15.4H3.7334V17.2667H36.4001V15.4Z" fill="black" fill-opacity="0.5"/>
<path d="M13.9995 41.5333H12.1328V43.4H13.9995V41.5333Z" fill="black" fill-opacity="0.5"/>
<path d="M45.7339 41.5333H43.8672V43.4H45.7339V41.5333Z" fill="black" fill-opacity="0.5"/>
<path d="M16.8001 7.93329H3.7334V9.79999H16.8001V7.93329Z" fill="black" fill-opacity="0.5"/>
<path d="M1.8667 7.93329H0V9.79999H1.8667V7.93329Z" fill="black" fill-opacity="0.5"/>
</svg>
