<svg width="48" height="48" viewBox="0 0 48 48" fill="none" xmlns="http://www.w3.org/2000/svg">
<path d="M21.4904 26.5169C21.1176 26.2228 20.7806 25.3611 20.5829 24.6152C21.5585 24.1926 23.3698 23.2576 23.9777 21.9319C24.2399 21.3603 24.2622 20.7579 24.0425 20.1891C23.6836 19.2608 15.9917 12.1889 16.2935 9.83635C16.853 5.47039 14.8711 0.656178 14.7865 0.453297C14.6298 0.0775646 14.198 -0.0996815 13.8223 0.0570568C13.4465 0.213795 13.2689 0.645191 13.4253 1.02129C13.4443 1.06743 15.3391 5.67986 14.8305 9.64885C14.4316 12.7583 22.4319 20.1137 22.6663 20.7205C22.7435 20.9201 22.7347 21.1036 22.6373 21.316C22.2297 22.207 20.4833 23.1093 19.4788 23.4689C19.1397 23.5898 18.9371 23.938 19.0001 24.2925C19.0441 24.5408 19.4531 26.6993 20.4998 27.6111C20.4276 27.9411 19.845 28.7109 19.2034 29.3217L16.3971 30.3226C16.0133 30.4592 15.8134 30.8814 15.9503 31.2648C16.058 31.5666 16.3418 31.7548 16.645 31.7548C16.7271 31.7548 16.8109 31.7409 16.8926 31.7116L19.2089 30.8858C19.4484 31.4263 19.667 31.9764 19.7501 32.2774C19.5549 32.448 18.1274 33.5481 17.8044 33.844C17.543 34.0835 16.8574 34.7112 17.2577 35.3759C17.4489 35.83 18.1179 38.7923 17.2075 40.6402C16.8307 41.4052 16.2374 41.8725 15.3948 42.0684C14.4829 42.2804 13.4367 42.0435 12.3292 41.7919C12.0216 41.7223 11.7125 41.6524 11.4024 41.5912L2.3866 39.7334C1.98707 39.6514 1.59742 39.9081 1.51539 40.3069C1.43299 40.7061 1.6897 41.0961 2.08887 41.1781L7.2931 42.2504C6.21461 43.1301 5.48218 44.693 5.00318 47.1196C4.92445 47.5191 5.18446 47.9069 5.58399 47.986C5.63233 47.9955 5.68031 47.9999 5.72755 47.9999C6.07288 47.9999 6.38087 47.7564 6.45045 47.4052C6.88221 45.2171 7.54725 43.8178 8.42725 43.2458C9.1681 42.7638 10.0822 42.8331 11.1262 43.0403L11.3991 43.0967C11.5964 43.1388 11.7975 43.1839 12.0033 43.2308C13.2242 43.5076 14.4869 43.794 15.7291 43.5054C17.1284 43.1799 18.1542 42.2863 18.6947 40.9214C19.5278 38.8183 19.0404 36.1182 18.6903 35.0342C18.9587 34.7698 21.0912 33.1135 21.2102 32.7564C21.2783 32.5521 21.4146 32.1426 20.4877 30.1277C21.0971 29.5059 22.014 28.4124 21.9811 27.4936C21.9672 27.1021 21.7929 26.7557 21.4904 26.5169ZM18.5105 34.5981C18.5372 34.6384 18.5581 34.679 18.5739 34.7193C18.5504 34.6669 18.5292 34.6263 18.5105 34.5981Z" fill="#29BAE2"/>
<path d="M46.4755 26.3957C46.3408 26.0116 45.92 25.8091 45.5355 25.9438C45.4296 25.9808 45.3238 26.0174 45.2183 26.053C44.8324 26.1833 44.6254 26.6015 44.7558 26.9875C44.8595 27.2951 45.1466 27.4892 45.4542 27.4892C45.5326 27.4892 45.612 27.4768 45.6904 27.4504C45.801 27.4131 45.9119 27.3746 46.0233 27.3358C46.4078 27.201 46.6103 26.7802 46.4755 26.3957Z" fill="#29BAE2"/>
<path d="M24.3952 24.6155C24.4674 24.6836 26.1999 26.2986 29.4182 27.5379C31.2833 28.2564 33.898 28.9302 37.1423 28.9302C39.022 28.9302 41.1131 28.7039 43.392 28.1289C43.7868 28.0293 44.0263 27.6287 43.9267 27.2335C43.8271 26.8388 43.4261 26.5993 43.0313 26.6989C37.2294 28.1623 32.7514 27.2288 30.0165 26.1876C27.0473 25.0579 25.4254 23.5593 25.4067 23.5421C25.1108 23.2638 24.6446 23.2774 24.3655 23.5733C24.0858 23.8695 24.0989 24.3361 24.3952 24.6155Z" fill="#29BAE2"/>
<path d="M44.4425 32.765C44.1722 32.799 43.9008 32.8294 43.6357 32.8554C43.2303 32.8954 42.9344 33.2564 42.9743 33.6618C43.0117 34.0423 43.3328 34.3269 43.7075 34.3269C43.7316 34.3269 44.3425 34.2639 44.6256 34.2287C45.0299 34.1778 45.3166 33.8094 45.2657 33.4051C45.2152 33.0012 44.8464 32.7148 44.4425 32.765Z" fill="#29BAE2"/>
<path d="M41.4279 33.7366C41.4308 33.3294 41.1027 32.9969 40.6955 32.9943C32.8296 32.9412 29.1221 29.2853 29.0767 29.2395C28.7925 28.9491 28.3267 28.9436 28.0355 29.2271C27.7437 29.5113 27.7374 29.9782 28.0216 30.2701C28.1861 30.4389 32.151 34.4115 40.6856 34.469H40.6903C41.0954 34.4694 41.4253 34.142 41.4279 33.7366Z" fill="#29BAE2"/>
<path d="M42.4238 42.3154C42.2788 42.2616 42.1349 42.207 41.9917 42.1517C41.6119 42.0052 41.1849 42.1938 41.0381 42.5739C40.8912 42.9537 41.0802 43.3807 41.46 43.5275C41.609 43.585 41.7591 43.6418 41.9104 43.6982C41.995 43.7297 42.0818 43.7443 42.1671 43.7443C42.4663 43.7443 42.7479 43.5609 42.8585 43.2635C43.0002 42.8819 42.8058 42.4575 42.4238 42.3154Z" fill="#29BAE2"/>
<path d="M39.0144 40.8347C37.4847 40.0689 36.0023 39.1794 34.6074 38.191C34.2753 37.9555 33.8149 38.0339 33.5791 38.3664C33.3436 38.6986 33.4224 39.1589 33.7545 39.3944C35.2102 40.426 36.7578 41.3543 38.3541 42.1534C38.46 42.2065 38.5727 42.2318 38.6837 42.2318C38.954 42.2318 39.2144 42.0824 39.3436 41.8242C39.526 41.4598 39.3784 41.0167 39.0144 40.8347Z" fill="#29BAE2"/>
<path d="M32.6698 36.7116C26.1377 31.3404 23.564 25.1137 23.5387 25.0515C23.386 24.6739 22.9568 24.4915 22.5792 24.6439C22.2013 24.7962 22.0186 25.2258 22.1709 25.6037C22.2793 25.8714 24.8955 32.2285 31.7334 37.8509C31.8704 37.9637 32.0363 38.0186 32.2011 38.0186C32.4142 38.0186 32.6255 37.9267 32.7712 37.7495C33.0298 37.4349 32.9847 36.9702 32.6698 36.7116Z" fill="#29BAE2"/>
</svg>
