<svg width="48" height="48" viewBox="0 0 48 48" fill="none" xmlns="http://www.w3.org/2000/svg">
<path d="M41.2848 13.5271C37.5819 13.5271 34.5696 16.5396 34.5696 20.2423C34.5696 20.6306 34.8844 20.9454 35.2727 20.9454C35.661 20.9454 35.9758 20.6306 35.9758 20.2423C35.9758 17.315 38.3574 14.9333 41.2848 14.9333C44.2121 14.9333 46.5938 17.315 46.5938 20.2423C46.5938 23.1697 44.2121 25.5513 41.2848 25.5513H0.703125C0.314812 25.5513 0 25.8661 0 26.2544C0 26.6427 0.314812 26.9575 0.703125 26.9575H41.2848C44.9875 26.9575 48 23.9452 48 20.2423C48 16.5395 44.9875 13.5271 41.2848 13.5271Z" fill="#29BAE2"/>
<path d="M26.2538 12.0242C23.3797 12.0242 21.0415 14.3623 21.0415 17.2364C21.0415 17.6248 21.3563 17.9395 21.7447 17.9395C22.133 17.9395 22.4478 17.6248 22.4478 17.2364C22.4478 15.1378 24.1551 13.4304 26.2538 13.4304C28.3524 13.4304 30.0597 15.1378 30.0597 17.2364C30.0597 19.3351 28.3524 21.0424 26.2538 21.0424H12.7266C12.3383 21.0424 12.0234 21.3572 12.0234 21.7455C12.0234 22.1338 12.3383 22.4486 12.7266 22.4486H26.2538C29.1278 22.4486 31.466 20.1104 31.466 17.2364C31.466 14.3624 29.1278 12.0242 26.2538 12.0242Z" fill="#29BAE2"/>
<path d="M36.7755 28.5574C34.7302 28.5574 33.0662 30.2213 33.0662 32.2666C33.0662 32.6549 33.3811 32.9697 33.7694 32.9697C34.1577 32.9697 34.4725 32.6549 34.4725 32.2666C34.4725 30.9967 35.5056 29.9636 36.7755 29.9636C38.0453 29.9636 39.0783 30.9967 39.0783 32.2666C39.0783 33.5364 38.0452 34.5695 36.7755 34.5695H20.2422C19.8539 34.5695 19.5391 34.8842 19.5391 35.2726C19.5391 35.6609 19.8539 35.9757 20.2422 35.9757H36.7755C38.8207 35.9757 40.4846 34.3117 40.4846 32.2666C40.4847 30.2212 38.8207 28.5574 36.7755 28.5574Z" fill="#29BAE2"/>
<path d="M17.2374 34.5696H15.7344C15.3461 34.5696 15.0312 34.8843 15.0312 35.2727C15.0312 35.661 15.3461 35.9758 15.7344 35.9758H17.2374C17.6257 35.9758 17.9405 35.661 17.9405 35.2727C17.9405 34.8844 17.6257 34.5696 17.2374 34.5696Z" fill="#29BAE2"/>
<path d="M9.72175 21.0425H8.21875C7.83044 21.0425 7.51562 21.3573 7.51562 21.7456C7.51562 22.1339 7.83044 22.4487 8.21875 22.4487H9.72175C10.1101 22.4487 10.4249 22.1339 10.4249 21.7456C10.4249 21.3573 10.1101 21.0425 9.72175 21.0425Z" fill="#29BAE2"/>
<path d="M27.7585 30.0605H12.7207C12.3324 30.0605 12.0176 30.3753 12.0176 30.7637C12.0176 31.152 12.3324 31.4668 12.7207 31.4668H27.7585C28.1468 31.4668 28.4616 31.1519 28.4616 30.7637C28.4616 30.3753 28.1468 30.0605 27.7585 30.0605Z" fill="#29BAE2"/>
<path d="M5.22055 21.0425H5.21305C4.82473 21.0425 4.51367 21.3573 4.51367 21.7456C4.51367 22.1339 4.83223 22.4487 5.22055 22.4487C5.60886 22.4487 5.92367 22.1339 5.92367 21.7456C5.92367 21.3573 5.60886 21.0425 5.22055 21.0425Z" fill="#29BAE2"/>
<path d="M9.72055 30.0605H9.71305C9.32473 30.0605 9.01367 30.3753 9.01367 30.7637C9.01367 31.152 9.33223 31.4668 9.72055 31.4668C10.1089 31.4668 10.4237 31.152 10.4237 30.7637C10.4237 30.3753 10.1089 30.0605 9.72055 30.0605Z" fill="#29BAE2"/>
<path d="M17.9884 16.5332H14.9824C14.5941 16.5332 14.2793 16.848 14.2793 17.2363C14.2793 17.6247 14.5941 17.9395 14.9824 17.9395H17.9884C18.3767 17.9395 18.6915 17.6247 18.6915 17.2363C18.6915 16.848 18.3767 16.5332 17.9884 16.5332Z" fill="#29BAE2"/>
<path d="M46.5451 30.0605H43.5391C43.1507 30.0605 42.8359 30.3753 42.8359 30.7637C42.8359 31.152 43.1507 31.4668 43.5391 31.4668H46.5451C46.9334 31.4668 47.2482 31.152 47.2482 30.7637C47.2482 30.3753 46.9334 30.0605 46.5451 30.0605Z" fill="#29BAE2"/>
</svg>
