<svg width="48" height="48" viewBox="0 0 48 48" fill="none" xmlns="http://www.w3.org/2000/svg">
<path d="M35.9768 16.0688C33.6645 12.2753 31.2735 8.35352 29.9745 3.55352C29.775 2.81777 28.7265 2.81777 28.5262 3.55352C27.2273 8.35277 24.8362 12.2753 22.524 16.0688C19.4257 21.1493 16.5 25.9485 16.5 32.25C16.5 39.2805 22.2195 45 29.25 45C36.2805 45 42 39.2805 42 32.25C42 25.9485 39.0743 21.1493 35.9768 16.0688ZM29.25 43.5C23.0468 43.5 18 38.4533 18 32.25C18 26.3693 20.8193 21.7448 23.8043 16.8495C25.7955 13.584 27.843 10.224 29.25 6.26027C30.657 10.224 32.7045 13.584 34.6958 16.8495C37.6808 21.7448 40.5 26.3693 40.5 32.25C40.5 38.4533 35.4533 43.5 29.25 43.5Z" fill="#29BAE2"/>
<path d="M17.25 38.2502C11.874 38.2502 7.5 33.8994 7.5 28.5519C7.5 23.4669 9.9585 19.4552 12.5625 15.2087C14.2672 12.4269 16.02 9.56792 17.2507 6.21092C18.3712 9.25892 19.9447 11.9522 21.5955 14.6522C22.1115 15.4989 23.3932 14.7174 22.875 13.8699C20.8102 10.4927 19.0155 7.38542 17.973 3.55292C17.7735 2.81792 16.725 2.81867 16.5255 3.55292C15.393 7.71917 13.3035 11.1287 11.2822 14.4249C8.5665 18.8574 6 23.0439 6 28.5519C6 34.7267 11.0467 39.7502 17.25 39.7502C18.2422 39.7502 18.243 38.2502 17.25 38.2502Z" fill="#29BAE2"/>
<path d="M9.01862 27.8046C8.84537 31.0514 10.2164 33.5946 12.3869 35.1719C13.1819 35.7486 14.0804 34.5479 13.2689 33.9591C11.4944 32.6691 10.3724 30.6096 10.5164 27.8834C10.5696 26.8904 9.07187 26.8206 9.01862 27.8046Z" fill="#29BAE2"/>
<path d="M24.75 26.25H22.5C22.086 26.25 21.75 26.5853 21.75 27V33V37.5C21.75 38.493 23.25 38.4923 23.25 37.5V33.75H24.75C26.4045 33.75 27.75 32.4045 27.75 30.75V29.25C27.75 27.5955 26.4045 26.25 24.75 26.25ZM26.25 30.75C26.25 31.5773 25.5773 32.25 24.75 32.25H23.25V27.75H24.75C25.5773 27.75 26.25 28.4228 26.25 29.25V30.75Z" fill="#29BAE2"/>
<path d="M34.5 22.5001V27.7501H30.75V22.5001C30.75 21.5071 29.25 21.5078 29.25 22.5001V33.0001C29.25 33.9931 30.75 33.9923 30.75 33.0001V29.2501H34.5V33.0001C34.5 33.9931 36 33.9923 36 33.0001V22.5001C36 21.5071 34.5 21.5078 34.5 22.5001Z" fill="#29BAE2"/>
</svg>
