<svg width="48" height="48" viewBox="0 0 48 48" fill="none" xmlns="http://www.w3.org/2000/svg">
<g clip-path="url(#clip0_1364_3147)">
<path d="M1.12233 33.64H17.319C17.9965 36.2463 20.0685 38.2561 22.5628 38.9182C22.9381 39.0174 23.323 38.794 23.4226 38.4187C23.5226 38.0433 23.2989 37.6584 22.9235 37.5588C21.9084 37.2893 21.0071 36.766 20.245 36.0039C17.1271 32.8864 18.3565 27.6122 22.4617 26.1532C22.6551 26.0844 21.9131 26.3166 33.519 22.7299C33.3033 23.4264 30.3004 33.1434 30.1766 33.5433C29.5475 35.5795 27.934 37.0915 25.8609 37.5889C25.4833 37.6793 25.2504 38.0587 25.3408 38.4363C25.4313 38.8138 25.8107 39.0467 26.1886 38.9563C28.7499 38.3421 30.7432 36.4741 31.5206 33.959L31.6191 33.64H46.8772C47.5064 33.64 48.0129 33.124 47.9997 32.4912C47.7214 19.4608 37.0859 9 23.9998 9C11.1836 9 0.281515 19.2033 0.00026661 32.4912C-0.0132831 33.1215 0.491353 33.64 1.12233 33.64ZM46.5854 32.2338H41.6511C41.4665 27.9641 39.7603 24.0245 36.9808 21.0194C39.4179 18.5822 39.0499 18.9503 40.4697 17.5305C44.2394 21.5368 46.399 26.7216 46.5854 32.2338ZM24.7029 10.4169C30.2404 10.5853 35.4376 12.7383 39.4747 16.5366L35.9865 20.0247C32.8906 17.1606 28.9183 15.5138 24.7029 15.3508V10.4169ZM23.9972 16.7435H24.0016C32.7606 16.7435 39.8402 23.6246 40.2426 32.2338H32.0535L34.9238 22.9467C35.0663 22.4857 34.9425 21.9876 34.6015 21.6467C34.2606 21.3057 33.7626 21.1823 33.3019 21.3248C21.303 25.033 21.8318 24.8261 21.0177 25.2531C18.3653 26.6443 16.9338 29.4356 17.0975 32.2338H7.75694C8.16966 23.5444 15.3323 16.7435 23.9972 16.7435ZM23.2967 10.4165V15.3512C18.986 15.5185 15.0474 17.2185 12.013 20.0247C9.58579 17.5975 9.56126 17.5733 8.53221 16.5443C12.8 12.6357 17.761 10.5769 23.2967 10.4165ZM7.52989 17.5305L11.0188 21.0194C8.23192 24.0362 6.5338 27.9696 6.3485 32.2338H1.41383C1.5995 26.7234 3.75904 21.539 7.52989 17.5305Z" fill="#29BAE2"/>
<path d="M27.3092 33.9085C27.5318 33.5903 27.4546 33.1519 27.1363 32.9293C26.8185 32.7066 26.3797 32.7839 26.1571 33.1021C25.38 34.2128 23.802 34.3392 22.856 33.3932C22.013 32.5502 22.013 31.1788 22.856 30.3358C23.8023 29.3895 25.3796 29.5169 26.1571 30.6273C26.3797 30.9451 26.8185 31.0224 27.1363 30.7997C27.4546 30.5771 27.5318 30.1384 27.3092 29.8205C26.0278 27.992 23.4251 27.7778 21.8618 29.3415C20.4706 30.7327 20.4706 32.9963 21.8618 34.3875C23.4284 35.9545 26.0318 35.7326 27.3092 33.9085Z" fill="#29BAE2"/>
</g>
<defs>
<clipPath id="clip0_1364_3147">
<rect width="48" height="48" fill="white"/>
</clipPath>
</defs>
</svg>
