<svg width="48" height="48" viewBox="0 0 48 48" fill="none" xmlns="http://www.w3.org/2000/svg">
<g clip-path="url(#clip0_1528_2476)">
<path d="M18.7189 44.148C18.7189 44.562 18.39 44.9014 17.976 44.9014C17.562 44.9014 17.2227 44.562 17.2227 44.148V34.713C17.2227 34.0766 17.4983 33.5033 17.9442 33.0896C18.3795 32.6865 18.9634 32.4424 19.6107 32.4424H28.3872C29.0344 32.4424 29.6288 32.6861 30.0529 33.0896C30.4984 33.5036 30.7752 34.0766 30.7752 34.713V44.148C30.7752 44.562 30.4459 44.9014 30.0319 44.9014C29.6179 44.9014 29.2785 44.562 29.2785 44.148V34.713C29.2785 34.5116 29.1934 34.3204 29.0449 34.1828C28.8754 34.0343 28.6523 33.9386 28.3872 33.9386H24.7467V44.1484C24.7467 44.5624 24.4182 44.9018 24.0042 44.9018C23.5905 44.9018 23.2508 44.5624 23.2508 44.1484V33.9383H19.6107C19.356 33.9383 19.1329 34.0343 18.9634 34.1824C18.8149 34.32 18.7193 34.5113 18.7193 34.7126V44.148H18.7189Z" fill="#29BAE2"/>
<path d="M16.6062 22.3815H21.5089C21.9229 22.3815 22.2518 22.7107 22.2518 23.1244V27.6881C22.2518 28.1021 21.9229 28.4302 21.5089 28.4302H16.6062C16.1922 28.4302 15.8633 28.1017 15.8633 27.6881V23.1244C15.8629 22.7107 16.1922 22.3815 16.6062 22.3815ZM16.6062 13.3076H21.5089C21.9229 13.3076 22.2518 13.6369 22.2518 14.0505V18.6139C22.2518 19.0279 21.9229 19.3567 21.5089 19.3567H16.6062C16.1922 19.3567 15.8633 19.0275 15.8633 18.6139V14.0509C15.8629 13.6369 16.1922 13.3076 16.6062 13.3076ZM20.7555 14.8046H17.3595V17.8605H20.7555V14.8046ZM28.9482 17.8605C29.3622 17.8605 29.6907 18.2002 29.6907 18.6142C29.6907 19.0282 29.3618 19.3571 28.9482 19.3571H26.4968C26.0828 19.3571 25.743 19.0279 25.743 18.6142V14.0509C25.743 13.6369 26.0824 13.308 26.4968 13.308C26.9108 13.308 27.2397 13.6372 27.2397 14.0509V17.8605H28.9482ZM26.4968 22.3815H31.389C31.803 22.3815 32.1424 22.7107 32.1424 23.1244V27.6881C32.1424 28.1021 31.803 28.4302 31.389 28.4302H26.4968C26.0828 28.4302 25.743 28.1017 25.743 27.6881V23.1244C25.743 22.7107 26.0828 22.3815 26.4968 22.3815ZM30.6465 23.8781H27.24V26.9344H30.6465V23.8781ZM20.7555 23.8781H17.3595V26.9344H20.7555V23.8781Z" fill="#29BAE2"/>
<path d="M36.6106 22.9867C36.3987 23.337 35.9427 23.4641 35.5921 23.2519C35.4751 23.1776 35.3798 23.0824 35.3161 22.9762L28.8848 12.0769C28.5556 11.5144 28.28 10.7929 28.1105 10.1561C27.9402 9.498 27.8555 8.81925 27.8555 8.11837C27.8555 5.87887 28.7577 3.85237 30.2326 2.37675C31.6973 0.91275 33.7242 0 35.9742 0C38.2133 0 40.2402 0.91275 41.7155 2.37712C43.1798 3.85275 44.093 5.87925 44.093 8.11875C44.093 8.81925 43.9973 9.49837 43.8278 10.1565C43.6576 10.836 43.3921 11.4724 43.0636 12.0667L36.6106 22.9867ZM35.9742 21.1399L41.7683 11.3231C42.0338 10.8457 42.2461 10.3256 42.3841 9.7845C42.5217 9.2535 42.596 8.70187 42.596 8.11837C42.596 6.29287 41.8538 4.63762 40.6542 3.43837C39.455 2.2395 37.7993 1.49625 35.9742 1.49625C34.1382 1.49625 32.4826 2.23912 31.2837 3.43837C30.0946 4.63762 29.3521 6.29287 29.3521 8.11837C29.3521 8.70225 29.426 9.2535 29.5538 9.7845C29.6915 10.3147 29.9037 10.8244 30.1583 11.3017L35.9742 21.1399Z" fill="#29BAE2"/>
<path d="M35.9743 3.78857C37.163 3.78857 38.2453 4.2772 39.0302 5.06207C39.8158 5.83682 40.304 6.91907 40.304 8.11832C40.304 9.3172 39.8154 10.4002 39.0302 11.1854C38.2449 11.9602 37.163 12.4481 35.9743 12.4481C34.775 12.4481 33.6924 11.9602 32.9072 11.1854C32.1219 10.4002 31.6445 9.31757 31.6445 8.11832C31.6445 6.91907 32.1219 5.83682 32.9072 5.06207C33.6924 4.27682 34.7747 3.78857 35.9743 3.78857ZM37.9693 6.11282C37.4597 5.60357 36.749 5.2852 35.9743 5.2852C35.189 5.2852 34.4777 5.60357 33.9684 6.11282C33.4588 6.63295 33.1408 7.33307 33.1408 8.1187C33.1408 8.90395 33.4588 9.61495 33.9684 10.1246C34.4773 10.6338 35.189 10.9522 35.9743 10.9522C36.749 10.9522 37.4597 10.6338 37.9693 10.1246C38.489 9.61532 38.8074 8.90395 38.8074 8.1187C38.8074 7.33307 38.489 6.63295 37.9693 6.11282Z" fill="#29BAE2"/>
<path d="M39.4337 36.4537C39.0197 36.4537 38.6916 36.1143 38.6916 35.7003C38.6916 35.2863 39.0201 34.957 39.4337 34.957H42.1506C43.0847 34.957 43.9127 35.4985 44.2735 36.358L47.7861 44.9118C47.9346 45.2725 47.9875 45.6337 47.9451 45.9944C47.8708 46.7268 47.3822 47.4055 46.735 47.7453C46.4061 47.9152 46.0453 48.0003 45.6636 48.0003H2.34396C1.96183 48.0003 1.60108 47.9152 1.27221 47.7453C0.614083 47.4055 0.136708 46.7268 0.0519575 45.9944C0.0200825 45.6337 0.0729575 45.2725 0.210958 44.9118L3.73446 36.358C4.09521 35.4985 4.92283 34.957 5.85696 34.957H8.55246C8.96646 34.957 9.29533 35.2867 9.29533 35.7003C9.29533 36.1139 8.96646 36.4537 8.55246 36.4537H5.85696C5.52808 36.4537 5.24121 36.6127 5.11408 36.931L1.60146 45.4844C1.54821 45.6018 1.52721 45.718 1.53771 45.835C1.56958 46.0792 1.73946 46.3019 1.95171 46.4189C2.06833 46.4722 2.19546 46.504 2.34433 46.504H45.6643C45.8128 46.504 45.94 46.4722 46.0465 46.4189C46.2696 46.3019 46.4391 46.0795 46.4605 45.835C46.471 45.718 46.4605 45.6018 46.4072 45.4844L42.8946 36.931C42.7671 36.6123 42.4806 36.4537 42.1517 36.4537H39.4337Z" fill="#29BAE2"/>
<path d="M35.2204 26.202C35.2204 25.788 35.5598 25.4482 35.9738 25.4482C36.3878 25.4482 36.7167 25.788 36.7167 26.202V44.1476C36.7167 44.5616 36.3874 44.901 35.9738 44.901H12.0319C11.6179 44.901 11.2891 44.5616 11.2891 44.1476V11.3449C11.2891 10.7081 11.5651 10.1347 12.0109 9.72111C12.4354 9.31761 13.0298 9.06299 13.6771 9.06299H25.4884C25.9024 9.06299 26.2313 9.40236 26.2313 9.81674C26.2313 10.2307 25.9021 10.5701 25.4884 10.5701H13.6771C13.4116 10.5701 13.1888 10.6552 13.0193 10.8142C12.8708 10.9519 12.7857 11.1431 12.7857 11.3449V43.4044H35.2208V26.202H35.2204Z" fill="#29BAE2"/>
</g>
<defs>
<clipPath id="clip0_1528_2476">
<rect width="48" height="48" fill="white"/>
</clipPath>
</defs>
</svg>
