<svg width="48" height="48" viewBox="0 0 48 48" fill="none" xmlns="http://www.w3.org/2000/svg">
<g clip-path="url(#clip0_1528_2484)">
<path d="M4.00041 44.7273V45.5993C4.00041 46.9249 5.07506 47.9995 6.40059 47.9995H12.8012C14.1267 47.9995 15.2014 46.9249 15.2014 45.5993V44.7993H31.2027V45.5993C31.2027 46.9249 32.2774 47.9995 33.6029 47.9995H40.0035C41.329 47.9995 42.4037 46.9249 42.4037 45.5993V44.7993C43.7292 44.7993 44.8039 43.7246 44.8039 42.3991V11.5387L47.2665 9.07612C47.8767 8.48025 48.1304 7.60856 47.9354 6.77831C47.4772 5.18653 46.596 3.74869 45.3856 2.61797C44.2537 1.40559 42.8142 0.523031 41.2205 0.0641248C40.39 -0.129563 39.5187 0.123937 38.9219 0.733031L36.4601 3.19566H4.80047C2.15034 3.19828 0.002625 5.34591 0 7.99594V39.9987C0.0043125 42.3387 1.6935 44.3354 4.00041 44.7273ZM13.6012 45.5993C13.6012 46.0412 13.243 46.3994 12.8012 46.3994H6.40059C5.95875 46.3994 5.60053 46.0413 5.60053 45.5993V44.7993H13.6012V45.5993H13.6012ZM40.8036 45.5993C40.8036 46.0412 40.4454 46.3994 40.0035 46.3994H33.6029C33.1611 46.3994 32.8028 46.0413 32.8028 45.5993V44.7993H40.8036V45.5993ZM40.0539 1.86431C40.2498 1.65112 40.5433 1.55662 40.8268 1.6155C42.1409 2.00269 43.3254 2.73909 44.2543 3.74606C45.2609 4.67503 45.9971 5.85909 46.3849 7.17272C46.4418 7.45594 46.3472 7.74853 46.1353 7.94484L40.1916 13.8654C39.284 13.5247 38.2609 13.7485 37.5785 14.4371C36.8961 15.1258 36.6815 16.1509 37.0306 17.0553L36.6066 17.4697C36.348 17.7793 35.8892 17.8252 35.5745 17.5729L30.4219 12.4252C30.3074 12.3017 30.2495 12.1362 30.2618 11.9683C30.2761 11.7502 30.3711 11.5451 30.5283 11.3931L30.9627 10.9778C31.8706 11.3185 32.8938 11.0946 33.5763 10.4058C34.2588 9.717 34.4735 8.69175 34.1246 7.78716L40.0539 1.86431ZM32.5342 7.99594C32.5499 8.13684 32.5875 8.27447 32.6453 8.40394C32.7454 8.71284 32.6638 9.05194 32.4341 9.28144C32.2044 9.51094 31.8653 9.59231 31.5564 9.492C30.9466 9.23559 30.2418 9.38484 29.7882 9.86644L29.3938 10.2608C28.9549 10.694 28.6934 11.2755 28.661 11.8914C28.6238 12.5107 28.8528 13.1162 29.2907 13.5556L30.1708 14.4317L22.5782 22.0204L20.842 22.7661C20.8276 22.7724 20.8156 22.7812 20.802 22.7876V7.99594H32.5342ZM32.4348 16.6992L24.8461 24.2879C24.7019 24.4312 24.5867 24.6009 24.5069 24.7879L23.7556 26.5353C23.6547 26.7696 23.4777 26.963 23.2532 27.0842L20.2209 28.7755L19.224 27.7786L20.9137 24.7383C21.0359 24.5133 21.2308 24.3365 21.4667 24.2367L23.2085 23.4878C23.3956 23.4079 23.5656 23.2927 23.7093 23.1487L31.2987 15.56L32.4348 16.6992ZM22.4019 35.9985H20.8017V32.7982H22.4019V35.9985ZM22.4019 31.198H20.8017V30.2667C20.8345 30.2523 20.8681 30.2459 20.9002 30.2291L22.4018 29.3915V31.198H22.4019ZM24.0022 28.4994L24.0302 28.4834C24.5532 28.195 24.9677 27.7435 25.2103 27.1977H33.603V36.7986H24.0022V28.4994ZM19.2017 24.5271L17.7616 27.1113C17.4493 27.6751 17.5511 28.3777 18.0104 28.8299L19.1529 29.9724C19.1674 29.9869 19.1842 29.9973 19.1985 30.0109V39.9989H8.72953C8.39222 37.9852 6.81413 36.4075 4.80037 36.0705L4.80675 11.9291C6.81881 11.5882 8.39344 10.009 8.72869 7.99594H19.2017V24.5271ZM20.8019 37.5986H22.6245C22.908 38.092 23.4331 38.397 24.0022 38.3987H33.603C34.4868 38.3987 35.2031 37.6822 35.2031 36.7985V27.1976C35.2031 26.3138 34.4867 25.5975 33.603 25.5975H25.9008L25.9807 25.4191L33.5694 17.8304L34.4496 18.7105C34.862 19.12 35.4213 19.3474 36.0024 19.3418C36.6576 19.3378 37.2841 19.0736 37.7442 18.6073L38.1378 18.2137C38.6198 17.76 38.7696 17.0544 38.513 16.4439C38.4128 16.1352 38.4943 15.7963 38.7239 15.5669C38.9535 15.3375 39.2924 15.2562 39.601 15.3566C39.7305 15.4143 39.8681 15.4515 40.009 15.4671L39.9995 36.0697C37.9885 36.4108 36.4138 37.9874 36.0751 39.9988H20.8019V37.5986ZM1.60022 7.99594C1.60022 6.22847 3.033 4.79569 4.80047 4.79569H34.8599L33.2597 6.39591H8.72878C7.94841 6.39572 7.28278 6.96056 7.15584 7.73044C6.92934 9.07069 5.88094 10.1217 4.54125 10.3514C3.76856 10.4752 3.20034 11.1419 3.20034 11.9243V36.0705C3.19978 36.8505 3.76444 37.516 4.53403 37.6426C5.87475 37.8693 6.92588 38.9184 7.155 40.2588C7.28016 41.0309 7.94663 41.5984 8.72869 41.5988H36.0751C36.8565 41.5987 37.5225 41.0323 37.6481 40.2611C37.8773 38.9229 38.9248 37.8742 40.2627 37.6433C41.0354 37.5196 41.6036 36.8528 41.6036 36.0704V14.739L43.2038 13.1389V42.399C43.2038 42.8408 42.8456 43.1991 42.4037 43.1991H4.80047C3.033 43.1991 1.60022 41.7663 1.60022 39.9988V7.99594Z" fill="#29BAE2"/>
<path d="M14.4011 28.7979H8.80058C7.47505 28.7979 6.40039 29.8725 6.40039 31.198V32.7982C6.40039 34.1237 7.47505 35.1984 8.80058 35.1984H14.401C15.7265 35.1984 16.8012 34.1237 16.8012 32.7982V31.198C16.8013 29.8725 15.7266 28.7979 14.4011 28.7979ZM15.2011 32.7983C15.2011 33.2401 14.8429 33.5983 14.401 33.5983H8.80058C8.35873 33.5983 8.00052 33.2401 8.00052 32.7983V31.198C8.00052 30.7562 8.35873 30.398 8.80058 30.398H14.401C14.8429 30.398 15.2011 30.7562 15.2011 31.198V32.7983Z" fill="#29BAE2"/>
<path d="M14.4011 20.7974H8.80058C7.47505 20.7974 6.40039 21.872 6.40039 23.1976V24.7977C6.40039 26.1232 7.47505 27.1979 8.80058 27.1979H14.401C15.7265 27.1979 16.8012 26.1232 16.8012 24.7977V23.1976C16.8013 21.8719 15.7266 20.7973 14.4011 20.7974ZM15.2011 24.7976C15.2011 25.2394 14.8429 25.5976 14.401 25.5976H8.80058C8.35873 25.5976 8.00052 25.2394 8.00052 24.7976V23.1975C8.00052 22.7556 8.35873 22.3974 8.80058 22.3974H14.401C14.8429 22.3974 15.2011 22.7556 15.2011 23.1975V24.7976Z" fill="#29BAE2"/>
<path d="M6.40039 15.1966V16.7967C6.40039 18.1223 7.47505 19.1969 8.80058 19.1969H14.401C15.7265 19.1969 16.8012 18.1222 16.8012 16.7967V15.1966C16.8012 13.871 15.7265 12.7964 14.401 12.7964H8.80058C7.47495 12.7964 6.40039 13.871 6.40039 15.1966ZM8.00052 15.1966C8.00052 14.7547 8.35873 14.3965 8.80058 14.3965H14.4011C14.843 14.3965 15.2012 14.7547 15.2012 15.1966V16.7967C15.2012 17.2385 14.843 17.5968 14.4011 17.5968H8.80058C8.35873 17.5968 8.00052 17.2385 8.00052 16.7967V15.1966Z" fill="#29BAE2"/>
<path fill-rule="evenodd" clip-rule="evenodd" d="M15.2009 36.7986H11.2005C10.7586 36.7986 10.4004 37.1567 10.4004 37.5986C10.4004 38.0406 10.7586 38.3987 11.2005 38.3987H15.2009C15.6427 38.3987 16.0009 38.0406 16.0009 37.5986C16.0009 37.1567 15.6428 36.7986 15.2009 36.7986Z" fill="#29BAE2"/>
<path fill-rule="evenodd" clip-rule="evenodd" d="M11.2005 11.1963H15.2009C15.6427 11.1963 16.0009 10.8381 16.0009 10.3963C16.0009 9.95441 15.6427 9.59619 15.2009 9.59619H11.2005C10.7586 9.59619 10.4004 9.95441 10.4004 10.3963C10.4003 10.838 10.7585 11.1963 11.2005 11.1963Z" fill="#29BAE2"/>
<path d="M26.4016 30.398C26.8435 30.398 27.2017 30.0398 27.2017 29.5979C27.2017 29.1561 26.8435 28.7979 26.4016 28.7979C25.9598 28.7979 25.6016 29.1561 25.6016 29.5979C25.6016 30.0398 25.9598 30.398 26.4016 30.398Z" fill="#29BAE2"/>
<path fill-rule="evenodd" clip-rule="evenodd" d="M31.202 33.5984H26.4016C25.9598 33.5984 25.6016 33.9565 25.6016 34.3985C25.6016 34.8403 25.9597 35.1985 26.4016 35.1985H31.202C31.6438 35.1985 32.0021 34.8404 32.0021 34.3985C32.0021 33.9565 31.6439 33.5984 31.202 33.5984Z" fill="#29BAE2"/>
<path fill-rule="evenodd" clip-rule="evenodd" d="M37.6028 28.7979C38.0446 28.7979 38.4029 28.4398 38.4029 27.9978V26.3977C38.4029 25.9559 38.0446 25.5977 37.6028 25.5977C37.161 25.5977 36.8027 25.9558 36.8027 26.3977V27.9978C36.8027 28.4398 37.161 28.7979 37.6028 28.7979Z" fill="#29BAE2"/>
<path fill-rule="evenodd" clip-rule="evenodd" d="M37.6028 33.5983C38.0446 33.5983 38.4029 33.2401 38.4029 32.7982V31.198C38.4029 30.7562 38.0446 30.3979 37.6028 30.3979C37.161 30.3979 36.8027 30.7562 36.8027 31.198V32.7981C36.8027 33.2401 37.161 33.5983 37.6028 33.5983Z" fill="#29BAE2"/>
<path fill-rule="evenodd" clip-rule="evenodd" d="M36.708 9.82335C36.9203 9.82391 37.124 9.73953 37.2737 9.58897L40.8524 6.01185C41.0547 5.80963 41.1336 5.51488 41.0596 5.2386C40.9856 4.96241 40.7698 4.7466 40.4936 4.67254C40.2174 4.59857 39.9225 4.6775 39.7203 4.87972L36.1424 8.4576C35.9137 8.68635 35.8453 9.0305 35.9691 9.32938C36.0929 9.62844 36.3846 9.82335 36.708 9.82335Z" fill="#29BAE2"/>
<path fill-rule="evenodd" clip-rule="evenodd" d="M38.41 11.8556C38.7224 12.1678 39.2289 12.1678 39.5413 11.8556L43.1191 8.27769C43.4315 7.96512 43.4313 7.4584 43.1188 7.14603C42.8062 6.83365 42.2995 6.83384 41.9871 7.1464L38.41 10.7243C38.0977 11.0367 38.0977 11.5432 38.41 11.8556Z" fill="#29BAE2"/>
<path d="M23.2024 11.1963C23.6443 11.1963 24.0025 10.8381 24.0025 10.3963C24.0025 9.95439 23.6443 9.59619 23.2024 9.59619C22.7605 9.59619 22.4023 9.95439 22.4023 10.3963C22.4023 10.8381 22.7605 11.1963 23.2024 11.1963Z" fill="#29BAE2"/>
<path d="M26.4016 14.3965C26.8435 14.3965 27.2017 14.0383 27.2017 13.5965C27.2017 13.1546 26.8435 12.7964 26.4016 12.7964C25.9598 12.7964 25.6016 13.1546 25.6016 13.5965C25.6016 14.0383 25.9598 14.3965 26.4016 14.3965Z" fill="#29BAE2"/>
<path d="M26.4016 11.1963C26.8435 11.1963 27.2017 10.8381 27.2017 10.3963C27.2017 9.95439 26.8435 9.59619 26.4016 9.59619C25.9598 9.59619 25.6016 9.95439 25.6016 10.3963C25.6016 10.8381 25.9598 11.1963 26.4016 11.1963Z" fill="#29BAE2"/>
<path fill-rule="evenodd" clip-rule="evenodd" d="M23.2024 19.1969C23.6442 19.1969 24.0025 18.8387 24.0025 18.3968V13.5965C24.0025 13.1546 23.6443 12.7964 23.2024 12.7964C22.7605 12.7964 22.4023 13.1545 22.4023 13.5965V18.3968C22.4023 18.8388 22.7605 19.1969 23.2024 19.1969Z" fill="#29BAE2"/>
</g>
<defs>
<clipPath id="clip0_1528_2484">
<rect width="48" height="48" fill="white"/>
</clipPath>
</defs>
</svg>
