<svg width="48" height="48" viewBox="0 0 48 48" fill="none" xmlns="http://www.w3.org/2000/svg">
<g clip-path="url(#clip0_1528_2505)">
<path d="M17.0332 17.0324H30.9687V10.8389H17.0332V17.0324ZM18.5816 12.3873H29.4203V15.484H18.5816V12.3873Z" fill="#29BAE2"/>
<path d="M27.0959 18.5806H20.9023V23.2257H27.0959V18.5806ZM25.5475 21.6773H22.4507V20.129H25.5475V21.6773Z" fill="#29BAE2"/>
<path d="M23.2266 24.7742H24.7749V26.3226H23.2266V24.7742Z" fill="#29BAE2"/>
<path d="M26.3223 24.7742H27.8707V26.3226H26.3223V24.7742Z" fill="#29BAE2"/>
<path d="M20.1289 24.7742H21.6773V26.3226H20.1289V24.7742Z" fill="#29BAE2"/>
<path d="M20.1289 39.4838H27.8708V34.8386H20.1289V39.4838ZM21.6773 36.387H26.3225V37.9354H21.6773V36.387Z" fill="#29BAE2"/>
<path d="M48 38.4953V34.2789L46.0615 33.6396C45.8494 32.8915 45.5504 32.1717 45.1705 31.4909L46.0895 29.6662L43.108 26.6847L41.2833 27.6037C40.6024 27.2238 39.8827 26.9248 39.1346 26.7127L38.4953 24.7742H37.2138L37.9154 17.2969C37.9287 17.1438 37.9355 16.9895 37.9355 16.8364C37.9355 14.7475 36.6657 12.8763 34.7854 12.0582L34.8054 11.9108C34.827 11.746 34.8387 11.5811 34.8387 11.4163C34.8387 9.58821 33.4926 8.08027 31.7419 7.80091V6.96774C31.7419 5.95993 31.0925 5.10824 30.1935 4.78768V0H25.5484V4.64516H22.4516V0H17.8065V4.78768C16.9075 5.10824 16.2581 5.95993 16.2581 6.96774V7.39113C15.6906 7.12273 14.963 6.79725 14.3661 6.59841L13.7211 4.64516H9.50466L8.86542 6.58367C8.11731 6.79574 7.39756 7.09476 6.71673 7.47467L4.89201 6.5557L1.91053 9.53717L2.82951 11.3619C2.4496 12.0427 2.15058 12.7625 1.93851 13.5106L0 14.1498V18.3663L1.93851 19.0055C2.15058 19.7537 2.4496 20.4734 2.82951 21.1542L1.91053 22.979L4.89201 25.9604L6.71673 25.0415C7.39756 25.4214 8.11656 25.7204 8.86467 25.9325L9.50466 27.871H11.0772L12.1278 39.0711C12.3153 41.0716 13.9718 42.5806 15.9817 42.5806H26.9512L26.6859 43.108L29.667 46.0895L31.4917 45.1705C32.1725 45.5504 32.8915 45.8494 33.6396 46.0615L34.2789 48H38.4953L39.1346 46.0615C39.8827 45.8494 40.6024 45.5504 41.2825 45.1705L43.1072 46.0895L46.0883 43.108L45.1697 41.2833C45.5496 40.6024 45.8487 39.8827 46.0607 39.1346L48 38.4953ZM35.873 39.0711L36.6317 30.9802C39.5062 31.1095 41.8064 33.4816 41.8064 36.3871C41.8064 39.3754 39.3754 41.8064 36.3871 41.8064C35.8012 41.8064 35.2273 41.7029 34.6799 41.5207C35.3381 40.8977 35.7815 40.0445 35.873 39.0711ZM36.3871 16.8364C36.3871 16.9442 36.3826 17.0508 36.3731 17.1555L34.3318 38.9263C34.2188 40.1265 33.2245 41.0323 32.019 41.0323H30.2438L30.9995 28.9408C31.9767 28.3911 32.6919 27.4128 32.8514 26.2413L34.5646 13.6792C35.6654 14.3286 36.3871 15.5194 36.3871 16.8364ZM19.3076 41.0323L18.5806 29.4001C18.651 29.4039 18.7186 29.4194 18.7897 29.4194H29.2103C29.2814 29.4194 29.349 29.4039 29.4186 29.4001L28.6924 41.0323H19.3076ZM33.2903 11.4163C33.2903 11.5131 33.2835 11.6099 33.271 11.7036L31.317 26.0323C31.1738 27.0805 30.2688 27.871 29.2103 27.871H18.7897C17.732 27.871 16.8262 27.0805 16.683 26.0323L14.729 11.7059C14.7165 11.6099 14.7097 11.5131 14.7097 11.4163C14.7097 10.2433 15.6627 9.29032 16.8357 9.29032H31.1651C32.3373 9.29032 33.2903 10.2433 33.2903 11.4163ZM27.0968 6.19355V7.74194H20.9032V6.19355H27.0968ZM30.1935 7.74194H28.6452V6.19355H29.4194C29.8458 6.19355 30.1935 6.54133 30.1935 6.96774V7.74194ZM27.0968 1.54839H28.6452V4.64516H27.0968V1.54839ZM20.9032 1.54839V4.64516H19.3548V1.54839H20.9032ZM18.5806 6.19355H19.3548V7.74194H17.8065V6.96774C17.8065 6.54133 18.1542 6.19355 18.5806 6.19355ZM10.6244 26.3226L10.0675 24.6355L9.64642 24.5357C8.76525 24.3266 7.92603 23.9792 7.15184 23.5014L6.78364 23.2746L5.19481 24.0737L3.79725 22.6762L4.59715 21.0873L4.37034 20.7191C3.89176 19.9449 3.54435 19.1057 3.33606 18.2245L3.23626 17.8034L1.54839 17.2466V15.2695L3.23551 14.7127L3.33531 14.2916C3.54435 13.4104 3.89176 12.5712 4.36958 11.797L4.5964 11.4288L3.79725 9.83997L5.19556 8.44166L6.7844 9.24156L7.1526 9.01474C7.92679 8.53616 8.76638 8.18876 9.64718 7.98047L10.0683 7.88067L10.6244 6.19355H12.6014L13.1583 7.88067L13.5794 7.98047C13.8697 8.04927 14.2969 8.21409 14.7407 8.40461C14.2961 8.71497 13.934 9.1255 13.6622 9.5969C13.0018 9.39314 12.3153 9.29032 11.6129 9.29032C7.77142 9.29032 4.64516 12.4166 4.64516 16.2581C4.64516 19.7729 7.22555 22.6822 10.6342 23.1578L10.9317 26.3226H10.6244ZM10.0853 17.2995L10.4849 21.5549C8.01827 21.0363 6.19355 18.8642 6.19355 16.2581C6.19355 13.2698 8.62462 10.8387 11.6129 10.8387C12.1557 10.8387 12.6861 10.9185 13.1961 11.0742C13.1851 11.1888 13.1613 11.2988 13.1613 11.4163C13.1613 11.5819 13.173 11.7467 13.1946 11.9134L13.2146 12.059C11.3343 12.8763 10.0645 14.7475 10.0645 16.8364C10.0645 16.9895 10.0713 17.1438 10.0853 17.2995ZM13.6682 38.9263L11.6269 17.1578C11.6174 17.0508 11.6129 16.9442 11.6129 16.8364C11.6129 15.5194 12.3346 14.3286 13.4361 13.6799L15.1493 26.2421C15.3088 27.4136 16.0244 28.3911 17.0013 28.9415L17.7569 41.0323H15.9817C14.7755 41.0323 13.7812 40.1273 13.6682 38.9263ZM44.7645 37.9325L44.6647 38.3536C44.4556 39.2348 44.1082 40.074 43.6304 40.8482L43.4036 41.2164L44.2035 42.8052L42.8052 44.2035L41.2164 43.4036L40.8482 43.6304C40.074 44.109 39.2355 44.4564 38.3536 44.6647L37.9325 44.7645L37.3756 46.4516H35.3986L34.8417 44.7645L34.4206 44.6647C33.5394 44.4556 32.7002 44.1082 31.926 43.6304L31.5578 43.4036L29.969 44.2035L28.5707 42.8052L28.6837 42.5806H32.0183C32.3521 42.5806 32.6704 42.5258 32.9792 42.4468C34.018 43.032 35.1846 43.3548 36.3871 43.3548C40.2286 43.3548 43.3548 40.2286 43.3548 36.3871C43.3548 32.6764 40.4369 29.6431 36.7765 29.4386L37.0683 26.3226H37.3756L37.9325 28.0097L38.3536 28.1095C39.2348 28.3185 40.074 28.666 40.8482 29.1438L41.2164 29.3706L42.8052 28.5707L44.2035 29.969L43.4036 31.5578L43.6304 31.926C44.109 32.7002 44.4564 33.5394 44.6647 34.4206L44.7645 34.8417L46.4516 35.3986V37.3756L44.7645 37.9325Z" fill="#29BAE2"/>
</g>
<defs>
<clipPath id="clip0_1528_2505">
<rect width="48" height="48" fill="white"/>
</clipPath>
</defs>
</svg>
