<svg width="73" height="73" viewBox="0 0 73 73" fill="none" xmlns="http://www.w3.org/2000/svg">
<g clip-path="url(#clip0_810_608)">
<path d="M68.1235 8.07033L63.8394 7.44796L61.9234 3.56594C61.278 2.25802 59.4125 2.25857 58.7676 3.56594L56.8516 7.44796L52.5675 8.07033C51.1244 8.28017 50.5482 10.0545 51.5919 11.0718L54.6922 14.0936L53.96 18.3607C53.7128 19.8032 55.2289 20.8914 56.5137 20.2157L60.3452 18.2008L64.1773 20.2157C65.4671 20.8941 66.9771 19.7977 66.7305 18.3607L65.9988 14.0936L69.0991 11.0718C70.1428 10.0545 69.5661 8.28017 68.1235 8.07033ZM64.3948 12.7115C63.9795 13.1164 63.7905 13.6986 63.8889 14.2694L64.5316 18.019L61.1643 16.2486C60.6517 15.9788 60.0393 15.9788 59.5262 16.2486L56.1589 18.019L56.8021 14.2694C56.8999 13.6986 56.711 13.1164 56.2962 12.7115L53.5716 10.0561L57.3366 9.50899C57.9096 9.42605 58.405 9.0657 58.6616 8.54659L60.3452 5.13479L62.0289 8.54604C62.2849 9.0657 62.7803 9.4255 63.3538 9.50899L67.1188 10.0561L64.3948 12.7115Z" fill="black" fill-opacity="0.5"/>
<path d="M22.1386 11.0717C23.1823 10.0538 22.6055 8.2801 21.163 8.07026L16.8789 7.44788L14.9629 3.56586C14.3169 2.25684 12.4514 2.25849 11.8065 3.56586L9.89048 7.44788L5.60636 8.07026C4.16386 8.2801 3.58762 10.0544 4.63133 11.0717L7.73112 14.0935L6.99943 18.3606C6.75333 19.7971 8.26231 20.894 9.55265 20.2156L13.3847 18.2013L17.2167 20.2156C18.5065 20.894 20.0166 19.7976 19.7699 18.3606L19.0382 14.0941L22.1386 11.0717ZM17.4342 12.7114C17.019 13.1163 16.83 13.6986 16.9278 14.2693L17.571 18.0189L14.2032 16.2485C13.6906 15.9788 13.0787 15.9788 12.5656 16.2485L9.19834 18.0189L9.84159 14.2693C9.93937 13.698 9.7504 13.1157 9.33567 12.7114L6.61106 10.056L10.3761 9.50892C10.9496 9.42542 11.445 9.06562 11.701 8.54596L13.3847 5.13471L15.0689 8.54651C15.3254 9.06562 15.8203 9.42542 16.3938 9.50892L20.1583 10.056L17.4342 12.7114Z" fill="black" fill-opacity="0.5"/>
<path d="M48.4042 9.89399L41.7371 8.9261L38.7549 2.88306C37.9825 1.31751 35.7479 1.31806 34.9756 2.88306L31.995 8.925L25.3263 9.89399C23.5987 10.145 22.9082 12.2698 24.1579 13.4882L28.9831 18.1903L27.8438 24.8316C27.5488 26.552 29.3561 27.8654 30.9019 27.053L34.8948 24.9535C35.4106 24.6827 35.6089 24.0449 35.3376 23.5291C35.0668 23.0139 34.429 22.8156 33.9132 23.0864L29.923 25.1881L31.0623 18.5468C31.1793 17.8629 30.9529 17.1653 30.4558 16.6813L25.6295 11.9814L32.2982 11.0124C32.9849 10.913 33.5776 10.4818 33.8846 9.85993L36.863 3.8169L39.8453 9.85939C40.1523 10.4812 40.7456 10.9124 41.4323 11.0124L48.0993 11.9775L43.2741 16.6813C42.777 17.1653 42.5507 17.8629 42.6682 18.5463L43.8102 25.1859L39.8167 23.0864C39.3004 22.815 38.6631 23.0139 38.3923 23.5291C38.121 24.0449 38.3193 24.6827 38.8351 24.9535L42.8281 27.053C44.3766 27.8665 46.1805 26.5476 45.8861 24.8316L44.7463 18.192L49.5715 13.4882C50.8223 12.2692 50.1312 10.145 48.4042 9.89399Z" fill="black" fill-opacity="0.5"/>
<path d="M66.8497 31.5673C66.4377 31.1558 65.7703 31.1558 65.3583 31.5673C64.9463 31.9798 64.9463 32.6472 65.3583 33.0592L70.6823 38.3832L63.144 45.922C62.6617 45.4397 49.4331 32.2111 49.2139 31.9919L56.7521 24.4531L61.8778 29.5787C62.2898 29.9907 62.9572 29.9907 63.3692 29.5787C63.7812 29.1667 63.7812 28.4988 63.3692 28.0868L58.1194 22.8375C57.3657 22.0833 56.1386 22.0833 55.3843 22.8375L47.5978 30.6241C46.8441 31.3783 46.8441 32.6049 47.5978 33.3591L48.508 34.2694C47.8884 34.9022 46.4415 36.5259 45.3862 36.5259C45.384 36.5259 45.3824 36.5259 45.3807 36.5259C41.4334 36.5073 41.9316 36.3304 36.8867 38.3074L33.8429 37.1148C33.8358 37.1115 33.8286 37.1088 33.8209 37.106C33.805 37.1005 32.1911 36.5161 30.541 36.5161C30.5377 36.5161 30.5344 36.5161 30.5311 36.5161C30.5217 36.5161 30.5124 36.5155 30.5025 36.5155C30.4377 36.5166 28.3931 36.5259 28.3931 36.5259C28.3909 36.5259 28.3893 36.5259 28.3876 36.5259C27.3439 36.5259 25.9344 34.95 25.2439 34.2474C26.1129 33.3784 26.6985 32.9686 26.6985 31.9913C26.6985 31.475 26.4974 30.9894 26.1321 30.6235L18.3456 22.837C17.5914 22.0833 16.3647 22.0833 15.6105 22.837L1.43213 37.0159C0.676269 37.7718 0.676269 38.9951 1.43213 39.751L9.21869 47.5375C9.9729 48.2918 11.1995 48.2918 11.9537 47.5375L12.7881 46.7031C14.9244 48.8372 15.1233 48.7686 15.159 50.8499C15.1821 52.2139 15.2112 53.9113 17.1008 55.7976C22.4028 61.0914 26.6172 65.3134 32.0494 70.7456C33.7578 72.454 36.6889 71.897 37.6255 69.6376L38.4335 70.4462C40.2271 72.2392 43.3137 71.5289 44.1041 69.0861C45.3533 69.625 46.8612 69.3844 47.8801 68.3654C48.9167 67.3294 49.1342 65.8177 48.603 64.5894C49.1002 64.4279 49.5671 64.15 49.9609 63.7556H49.9615C50.5828 63.1326 50.9085 62.3273 50.9475 61.51C51.0101 61.4545 56.6132 55.8569 56.6725 55.7976C58.5627 53.9107 58.5918 52.2139 58.6149 50.8499C58.6517 48.7142 58.9121 48.7839 60.9638 46.7246C61.7592 47.52 62.1744 48.1039 63.144 48.1039C63.6609 48.1039 64.1465 47.9028 64.5118 47.5375L72.2978 39.751C73.0542 38.9951 73.0542 37.7718 72.2984 37.0159L66.8497 31.5673ZM10.5859 45.922L3.04767 38.3837L16.9778 24.4531L24.5166 31.9919C24.17 32.338 11.2479 45.2601 10.5859 45.922ZM48.4685 62.2653C47.9697 62.7646 47.166 62.7739 46.6541 62.2977L36.0863 51.5855C35.6771 51.1707 35.0097 51.1663 34.5949 51.5756C34.1802 51.9843 34.1758 52.6522 34.585 53.067C36.6477 55.1588 44.3085 62.9404 46.3887 65.0201C46.9024 65.5337 46.9002 66.3632 46.3887 66.874C45.8779 67.3849 45.0462 67.3849 44.5353 66.874C42.3386 64.6773 44.8325 67.2003 32.5762 54.7352C32.168 54.3194 31.5001 54.3139 31.0848 54.7226C30.6695 55.1307 30.664 55.7987 31.0721 56.214C31.0754 56.2173 41.7789 67.1009 41.7789 67.1009C42.2903 67.6118 42.2903 68.4434 41.7789 68.9548C41.268 69.4657 40.4369 69.4657 39.9255 68.9543C38.0721 67.1014 39.8848 68.9548 29.3116 58.069C28.9056 57.6516 28.2382 57.6417 27.8202 58.0476C27.4022 58.4536 27.3928 59.121 27.7988 59.539L35.2244 67.1844C35.3695 67.4354 35.7748 67.6744 35.7743 68.3292C35.7743 68.6785 35.6381 69.007 35.3909 69.2542C34.8811 69.7651 34.0511 69.7645 33.5408 69.2542C20.389 56.1019 30.4481 66.144 18.5911 54.3046C17.3057 53.0214 17.2892 52.0474 17.2678 50.8142C17.2167 47.8078 16.423 47.3524 14.2801 45.2117L23.7525 35.7388C24.8055 36.8132 26.4205 38.6359 28.3871 38.6359H28.403C30.0015 38.6282 30.3937 38.6265 30.4937 38.626H30.5124H30.5426C31.7423 38.626 32.986 39.0495 33.0887 39.0852L33.9956 39.4406L29.1182 41.3511C25.3746 42.7448 26.5952 48.6834 31.1589 47.938L35.4041 47.364L48.4619 60.4223C48.9722 60.931 48.9749 61.7577 48.4685 62.2653ZM57.998 46.7064H57.9974C56.5511 48.1506 56.5264 49.6277 56.5061 50.8142C56.4852 52.0474 56.4682 53.0214 55.1822 54.3046L50.2521 59.2281C50.2054 59.1814 36.8175 45.7935 36.5263 45.5023C36.306 45.282 35.9764 45.1579 35.6392 45.2029L30.8612 45.8495C30.8508 45.8506 30.8398 45.8522 30.8288 45.8539C28.7908 46.1939 28.4585 43.8428 29.8593 43.3259C29.8659 43.3237 29.8724 43.321 29.879 43.3188C42.9489 38.1975 41.0346 38.6144 45.3703 38.6353H45.3862C47.2402 38.6353 48.7211 37.0692 49.9994 35.7607L59.4718 45.2332C59.3916 45.3139 58.0776 46.6262 57.998 46.7064Z" fill="black" fill-opacity="0.5"/>
</g>
<defs>
<clipPath id="clip0_810_608">
<rect width="72" height="72" fill="white" transform="translate(0.865234 0.584229)"/>
</clipPath>
</defs>
</svg>
