<svg width="72" height="73" viewBox="0 0 72 73" fill="none" xmlns="http://www.w3.org/2000/svg">
<g clip-path="url(#clip0_810_589)">
<path d="M55.1185 39.897C58.9857 39.897 62.1322 36.7505 62.1322 32.8833C62.1322 29.0161 58.9857 25.8696 55.1185 25.8696C51.2508 25.8696 48.1048 29.0161 48.1048 32.8833C48.1048 36.7505 51.2508 39.897 55.1185 39.897ZM55.1185 27.979C57.8228 27.979 60.0228 30.179 60.0228 32.8833C60.0228 35.5876 57.8228 37.7876 55.1185 37.7876C52.4142 37.7876 50.2142 35.5876 50.2142 32.8833C50.2142 30.179 52.4142 27.979 55.1185 27.979Z" fill="black" fill-opacity="0.5"/>
<path d="M6.52863 20.0228C7.24714 20.0228 7.54597 20.2562 8.042 20.6435C8.61934 21.0934 9.40925 21.7103 10.8534 21.7103C12.2976 21.7103 13.0875 21.0934 13.6648 20.6435C14.1603 20.2562 14.4597 20.0228 15.1782 20.0228C15.8961 20.0228 16.1955 20.2562 16.6916 20.6435C17.109 20.9693 17.6391 21.3829 18.4483 21.5861V24.107H23.1466C24.003 25.2462 25.351 25.8988 27.0347 25.8988C30.1136 25.8988 34.7685 23.8076 34.7685 20.6556C34.7685 17.5036 30.1136 15.4124 27.0347 15.4124C25.351 15.4124 24.003 16.0649 23.1466 17.2042H18.4483V19.3169C18.3016 19.2246 18.1566 19.1109 17.9896 18.9807C17.4123 18.5303 16.6223 17.9134 15.1782 17.9134C13.734 17.9134 12.9441 18.5303 12.3673 18.9807C11.8713 19.3674 11.5719 19.6009 10.854 19.6009C10.1355 19.6009 9.83607 19.3674 9.34004 18.9807C8.76326 18.5303 7.97279 17.9134 6.52863 17.9134C5.08448 17.9134 4.29401 18.5303 3.71723 18.9807C3.22119 19.3674 2.92182 19.6009 2.20386 19.6009V21.7103C3.64746 21.7103 4.43793 21.0939 5.01471 20.6435C5.51075 20.2562 5.81013 20.0228 6.52863 20.0228ZM27.0347 17.5217C29.5049 17.5217 32.6586 19.279 32.6586 20.6556C32.6586 22.0322 29.5049 23.7894 27.0347 23.7894C24.588 23.7894 24.2227 21.8262 24.2227 20.6556C24.2227 19.485 24.588 17.5217 27.0347 17.5217ZM20.5571 19.3136H22.1133V21.9976H20.5571V19.3136Z" fill="black" fill-opacity="0.5"/>
<path d="M42.1508 46.8756H44.2602V48.985H42.1508V46.8756Z" fill="black" fill-opacity="0.5"/>
<path d="M49.9088 43.8285H52.0182V45.9379H49.9088V43.8285Z" fill="black" fill-opacity="0.5"/>
<path d="M43.0182 23.7894H45.1275V25.8988H43.0182V23.7894Z" fill="black" fill-opacity="0.5"/>
<path d="M48.8541 20.9066H50.9635V23.016H48.8541V20.9066Z" fill="black" fill-opacity="0.5"/>
<path d="M44.5183 41.2412H46.6277V43.3506H44.5183V41.2412Z" fill="black" fill-opacity="0.5"/>
<path d="M24.6902 45.6149C23.0071 45.6149 21.659 46.2675 20.8027 47.4067H16.1038V49.5194C15.9577 49.4271 15.8127 49.314 15.6451 49.1832C15.0683 48.7328 14.2779 48.1165 12.8343 48.1165C11.3901 48.1165 10.6002 48.7328 10.0228 49.1832C9.52681 49.5705 9.22798 49.804 8.50948 49.804C7.79097 49.804 7.49159 49.5705 6.99556 49.1832C6.41877 48.7328 5.62831 48.1165 4.1847 48.1165C2.74054 48.1165 1.95008 48.7328 1.37329 49.1832C0.87726 49.57 0.577882 49.804 -0.140625 49.804V51.9133C1.30353 51.9133 2.094 51.2965 2.67078 50.846C3.16681 50.4593 3.46619 50.2258 4.1847 50.2258C4.90266 50.2258 5.20204 50.4593 5.69807 50.846C6.27485 51.2965 7.06532 51.9133 8.50948 51.9133C9.95363 51.9133 10.7436 51.2965 11.3209 50.846C11.8164 50.4593 12.1157 50.2258 12.8343 50.2258C13.5522 50.2258 13.8516 50.4593 14.3476 50.846C14.7651 51.1723 15.2952 51.5859 16.1038 51.7886V54.31H20.8027C21.659 55.4493 23.0071 56.1019 24.6907 56.1019C27.7696 56.1019 32.424 54.0106 32.424 50.8587C32.424 47.7061 27.7691 45.6149 24.6902 45.6149V45.6149ZM19.7694 52.2006H18.2132V49.5161H19.7694V52.2006ZM24.6902 53.9925C22.2441 53.9925 21.8788 52.0287 21.8788 50.8581C21.8788 49.6881 22.2441 47.7242 24.6902 47.7242C27.161 47.7242 30.3146 49.4821 30.3146 50.8581C30.3146 52.2347 27.161 53.9925 24.6902 53.9925Z" fill="black" fill-opacity="0.5"/>
<path d="M27.9877 40.8963C28.8441 42.0356 30.1921 42.6881 31.8758 42.6881C34.9547 42.6881 39.6091 40.5969 39.6091 37.4449C39.6091 34.2929 34.9547 32.2017 31.8758 32.2017C30.1921 32.2017 28.8441 32.8543 27.9877 33.9935H23.2889V36.5149C22.4803 36.7182 21.9507 37.1312 21.5327 37.4575C21.0367 37.8443 20.7373 38.0777 20.0193 38.0777C19.3008 38.0777 19.0014 37.8443 18.506 37.4575C17.9286 37.0071 17.1387 36.3902 15.6946 36.3902C14.2504 36.3902 13.4605 37.0071 12.8831 37.4575C12.3871 37.8443 12.0883 38.0777 11.3698 38.0777C10.6513 38.0777 10.3519 37.8443 9.85586 37.4575C9.27907 37.0071 8.48861 36.3902 7.04445 36.3902V38.4996C7.76296 38.4996 8.06233 38.7336 8.55837 39.1203C9.13515 39.5708 9.92562 40.1871 11.3698 40.1871C12.8134 40.1871 13.6039 39.5708 14.1812 39.1203C14.6767 38.7336 14.976 38.4996 15.6946 38.4996C16.4131 38.4996 16.7124 38.7336 17.2079 39.1203C17.7853 39.5708 18.5752 40.1871 20.0193 40.1871C21.4629 40.1871 22.2534 39.5708 22.8302 39.1203C22.9977 38.9896 23.1428 38.8764 23.2889 38.7841V40.8968H27.9877V40.8963ZM31.8758 34.311C34.3461 34.311 37.4997 36.0683 37.4997 37.4449C37.4997 38.8215 34.3461 40.5788 31.8758 40.5788C29.4291 40.5788 29.0638 38.6155 29.0638 37.4449C29.0638 36.2743 29.4291 34.311 31.8758 34.311ZM25.3983 36.1029H26.9545V38.7869H25.3983V36.1029Z" fill="black" fill-opacity="0.5"/>
<path d="M51.4211 16.1423C42.5737 16.1423 34.7712 21.7855 32.006 30.1851L34.0099 30.8443C36.4895 23.312 43.4867 18.2517 51.4211 18.2517C61.5274 18.2517 69.7501 26.4739 69.7501 36.5803C69.7501 46.6871 61.5274 54.9093 51.4211 54.9093C44.1102 54.9093 37.5068 50.5736 34.5977 43.8631L32.6624 44.7025C35.9056 52.1842 43.2692 57.0187 51.4211 57.0187C62.6908 57.0187 71.8595 47.8501 71.8595 36.5803C71.8595 25.3104 62.6908 16.1423 51.4211 16.1423V16.1423Z" fill="black" fill-opacity="0.5"/>
<path d="M55.1185 36.3797C54.2226 36.3797 53.3272 36.0386 52.6449 35.3569L54.1363 33.8649C54.678 34.4066 55.5585 34.4066 56.1001 33.8649C56.6418 33.3239 56.6418 32.4427 56.1001 31.9017L57.5915 30.4103C58.9555 31.7737 58.9555 33.9929 57.5915 35.3569C56.9098 36.0386 56.0139 36.3797 55.1185 36.3797V36.3797Z" fill="black" fill-opacity="0.5"/>
<path d="M51.4211 53.5031V51.3937C57.101 51.3937 62.3541 48.0714 64.8041 42.9293L66.708 43.8367C65.3512 46.6844 63.2297 49.0959 60.5721 50.8103C57.8415 52.572 54.6774 53.5031 51.4211 53.5031V53.5031ZM67.2925 42.4552L65.3149 41.7213C65.5424 41.1072 65.7308 40.4727 65.8741 39.835L67.9324 40.298C67.7682 41.0275 67.5529 41.7532 67.2925 42.4552V42.4552ZM68.1961 38.822L66.1049 38.5441C66.1911 37.8975 66.2345 37.2372 66.2345 36.5808H68.3439C68.3439 37.3295 68.2939 38.0837 68.1961 38.822Z" fill="black" fill-opacity="0.5"/>
</g>
<defs>
<clipPath id="clip0_810_589">
<rect width="72" height="72" fill="white" transform="translate(0 0.0842285)"/>
</clipPath>
</defs>
</svg>
