<svg width="72" height="73" viewBox="0 0 72 73" fill="none" xmlns="http://www.w3.org/2000/svg">
<g clip-path="url(#clip0_810_613)">
<path d="M0.815979 67.7996L1.74931 69.9005L35.241 56.0133L41.0758 56.7136L43.1761 63.1318L40.3755 65.8161C39.3254 66.7495 38.9755 68.2663 39.559 69.6668L40.7259 72.5842L60.0969 64.999L59.0467 62.1985C58.5801 60.7979 57.2963 59.9814 55.7795 59.9814H51.9282L49.8279 54.9631L54.9624 52.3962C56.596 51.5791 57.2963 49.7119 56.7128 48.0782L50.0616 30.2241C49.3613 28.3569 47.3772 27.5398 45.51 28.1233C45.51 28.1233 45.3937 28.1233 45.3937 28.2401L40.4923 30.3404L39.792 28.5899L42.4764 25.4395C44.343 23.3387 45.51 20.7717 45.8604 17.9711L49.2445 13.8868C51.4616 11.3193 50.9949 7.46857 48.4274 5.25091C47.9607 4.90105 47.494 4.55119 47.0274 4.31757C45.7436 3.7341 44.4598 3.61729 43.0598 3.96772L42.7094 2.917C42.1259 1.05034 40.0257 0.116433 38.2752 0.816718L13.6524 9.68566C11.7852 10.3859 10.8519 12.3694 11.5522 14.1199V14.2367L12.1356 15.7535C9.10145 17.154 7.70088 20.6549 8.75102 23.6891C9.56811 26.023 11.6684 27.6566 14.1191 28.0065L19.604 28.5899C21.8211 30.2241 24.5049 31.2743 27.1892 31.5073L31.0399 31.8577L31.7402 33.6082C30.9231 34.0748 30.3396 34.8919 30.1066 35.9421L29.2895 39.9096L0.815979 51.4623L1.63307 53.6794L17.9704 47.1449L21.9379 59.0475L0.815979 67.7996ZM56.7128 62.8988L56.9465 63.5985L42.0091 69.55L41.6593 68.8498C41.5425 68.3831 41.6593 67.9164 41.8929 67.5666L45.8604 63.8321L50.8781 62.1985H55.5459C56.1294 62.1985 56.4798 62.4315 56.7128 62.8988ZM49.3613 60.0976L45.1601 61.4982L43.6433 57.064C44.343 57.1802 44.9265 57.064 45.51 56.7136L47.494 55.7802L49.3613 60.0976ZM46.2103 29.9905C46.7938 29.7569 47.494 29.9905 47.7277 30.574L48.661 33.0247L42.943 34.8919L43.6433 37.109L49.3613 35.2418L50.7613 38.9763L45.2769 40.8429L45.9772 43.0606L51.5784 41.1933L52.9789 44.9272L47.6108 46.6777L48.3111 48.8953L53.7955 47.0281L54.3789 48.5449C54.6126 49.1284 54.3789 49.7119 53.7955 49.9455L44.5767 54.4965C44.343 54.6133 44.11 54.6133 43.8764 54.6133L35.9413 53.6794L31.6234 40.7267L32.4405 36.4087C32.5573 36.0589 32.7903 35.7085 33.1408 35.5916L46.2103 29.9905ZM46.0935 6.41786C47.9607 7.23495 48.8946 9.45204 48.0775 11.4361C47.9607 11.7859 47.7277 12.0196 47.494 12.3694L46.0935 14.1199C45.9772 12.9529 45.7436 11.9028 45.3937 10.7358L43.8764 6.18481C44.6935 6.068 45.3938 6.18481 46.0935 6.41786ZM11.0849 23.1056C10.3852 21.1216 11.2017 19.0213 13.069 18.0874L14.7026 22.0555C15.2861 23.4555 16.1032 24.856 17.0365 26.023L14.5858 25.7894C12.9522 25.6726 11.5522 24.6224 11.0849 23.1056ZM27.6559 29.2902C22.8712 28.8236 18.6701 25.7894 16.9197 21.2384L13.8861 13.5364C13.6524 12.9529 13.8861 12.2526 14.4695 12.0196L39.0918 3.15062C39.4422 3.03381 39.6752 3.03381 40.0257 3.15062C40.2587 3.26743 40.4923 3.50048 40.6091 3.85091L43.1761 11.5529C44.5767 15.8703 43.6433 20.5381 40.7259 23.9221L37.1083 28.1233L38.1584 30.9238L33.9573 32.6743L32.7903 29.7569L27.6559 29.2902ZM20.1875 46.211L22.8712 45.1609L25.7886 54.0298L28.0057 53.3295L24.9721 44.2275L29.6399 42.3603L33.6074 54.1466L24.155 58.1141L20.1875 46.211Z" fill="black" fill-opacity="0.5"/>
<path d="M58.4632 21.0047V22.1717H60.7972V21.0047C60.7972 17.7375 63.3647 15.17 66.6319 15.17V12.8361C63.3647 12.8361 60.7972 10.2691 60.7972 7.0013V5.83435H58.4632V7.0013C58.4632 10.2691 55.8963 12.8361 52.6285 12.8361V15.17C55.8963 15.17 58.4632 17.7375 58.4632 21.0047ZM59.6302 11.2024C60.3305 12.3694 61.2638 13.3033 62.4308 14.003C61.2638 14.7033 60.3305 15.6372 59.6302 16.8041C58.9299 15.6372 57.9966 14.7033 56.8296 14.003C57.9966 13.3033 58.9299 12.3694 59.6302 11.2024Z" fill="black" fill-opacity="0.5"/>
<path d="M7.11735 44.3438V45.5108H9.45125V44.3438C9.45125 41.0766 12.0188 38.5091 15.286 38.5091V36.1752C12.0188 36.1752 9.45125 33.6082 9.45125 30.3404V29.1735H7.11735V30.3404C7.11735 33.6082 4.5504 36.1752 1.28259 36.1752V38.5091C4.5504 38.5091 7.11735 41.0766 7.11735 44.3438ZM8.2843 34.5415C8.98459 35.7085 9.91792 36.6424 11.0849 37.3421C9.91792 38.0424 8.98459 38.9763 8.2843 40.1432C7.58402 38.9763 6.65068 38.0424 5.48373 37.3421C6.65068 36.6424 7.58402 35.7085 8.2843 34.5415Z" fill="black" fill-opacity="0.5"/>
<path d="M65.465 30.3404V29.1735H63.1311V30.3404C63.1311 33.6082 60.5641 36.1752 57.2963 36.1752V38.5091C60.5641 38.5091 63.1311 41.0766 63.1311 44.3438V45.5108H65.465V44.3438C65.465 41.0766 68.0325 38.5091 71.2998 38.5091V36.1752C68.0325 36.1752 65.465 33.6082 65.465 30.3404ZM64.298 40.1432C63.5978 38.9763 62.6644 38.0424 61.4975 37.3421C62.6644 36.6424 63.5978 35.7085 64.298 34.5415C64.9983 35.7085 65.9317 36.6424 67.0986 37.3421C65.9317 38.0424 64.9983 38.9763 64.298 40.1432Z" fill="black" fill-opacity="0.5"/>
<path d="M35.4746 21.3552L37.1083 22.9888C43.5265 16.5706 37.5749 6.76827 37.2251 6.41785L35.241 7.70161C35.3578 7.70161 40.6091 16.2207 35.4746 21.3552Z" fill="black" fill-opacity="0.5"/>
</g>
<defs>
<clipPath id="clip0_810_613">
<rect width="72" height="72" fill="white" transform="translate(0 0.584229)"/>
</clipPath>
</defs>
</svg>
