<svg width="24" height="24" viewBox="0 0 24 24" fill="none" xmlns="http://www.w3.org/2000/svg">
<path d="M0.653023 17.6136L4.00229 14.2643C5.19846 13.0681 7.23195 13.5467 7.71042 15.1016C8.06927 16.1782 9.26544 16.7763 10.342 16.537C12.7343 15.9389 15.964 12.8289 16.5621 10.317C16.9209 9.24036 16.2032 8.04419 15.1267 7.68538C13.5716 7.20691 13.0932 5.17343 14.2893 3.97726L17.6386 0.627989C18.5956 -0.209329 20.031 -0.209329 20.8683 0.627989L23.141 2.90071C25.4137 5.29305 22.9018 11.6327 17.2798 17.2547C11.6578 22.8767 5.31808 25.5083 2.92574 23.116L0.653023 20.8432C-0.184341 19.8863 -0.184341 18.4509 0.653023 17.6136Z" fill="#29BAE2"/>
</svg>
