<svg width="15" height="16" viewBox="0 0 15 16" fill="none" xmlns="http://www.w3.org/2000/svg">
<path d="M14.5175 11.3C14.4765 11.2675 11.5 9.122 10.683 9.276C10.293 9.345 10.07 9.611 9.6225 10.1435C9.5505 10.2295 9.3775 10.4355 9.243 10.582C8.9602 10.4898 8.68433 10.3775 8.4175 10.246C7.04026 9.5755 5.9275 8.46274 5.257 7.0855C5.12543 6.81871 5.01315 6.54284 4.921 6.26C5.068 6.125 5.274 5.952 5.362 5.878C5.892 5.433 6.1585 5.21 6.2275 4.819C6.369 4.009 4.225 1.012 4.2025 0.985C4.10522 0.846035 3.97827 0.730431 3.83084 0.646552C3.6834 0.562672 3.51916 0.512614 3.35 0.5C2.481 0.5 0 3.7185 0 4.2605C0 4.292 0.0455 7.494 3.994 11.5105C8.0065 15.4545 11.208 15.5 11.2395 15.5C11.782 15.5 15 13.019 15 12.15C14.9875 11.9814 14.9378 11.8177 14.8543 11.6707C14.7709 11.5238 14.6558 11.3971 14.5175 11.3Z" fill="#363636"/>
</svg>
