<svg width="33" height="32" viewBox="0 0 33 32" fill="none" xmlns="http://www.w3.org/2000/svg">
<path d="M0.5 0H28.5C30.7091 0 32.5 1.79086 32.5 4V28C32.5 30.2091 30.7091 32 28.5 32H0.5V0Z" fill="#23A0DC"/>
<path d="M23.1818 10.4607L20.9387 22.4589C20.9387 22.4589 20.6252 23.2909 19.7624 22.8915L14.563 18.6694C15.2618 18.0029 20.6834 12.8316 20.9205 12.5971C21.2869 12.2342 21.0595 12.0182 20.6335 12.2927L12.6254 17.6882L9.53586 16.5847C9.53586 16.5847 9.04946 16.4016 9.00265 16.0022C8.95556 15.6029 9.55165 15.3866 9.55165 15.3866L22.1467 10.1445C22.1467 10.1445 23.1818 9.66192 23.1818 10.4607Z" fill="white"/>
</svg>
