<svg width="13" height="16" viewBox="0 0 13 16" fill="none" xmlns="http://www.w3.org/2000/svg">
<path d="M6.5 0C3.192 0 0.5 2.71067 0.5 6.04333C0.5 10.7787 5.936 15.668 6.16733 15.8733C6.26267 15.958 6.38133 16 6.5 16C6.61867 16 6.73733 15.958 6.83266 15.874C7.064 15.668 12.5 10.7787 12.5 6.04333C12.5 2.71067 9.808 0 6.5 0ZM6.5 9.33333C4.662 9.33333 3.16667 7.838 3.16667 6C3.16667 4.162 4.662 2.66667 6.5 2.66667C8.338 2.66667 9.83333 4.162 9.83333 6C9.83333 7.838 8.338 9.33333 6.5 9.33333Z" fill="#363636"/>
</svg>
