<svg width="17" height="10" viewBox="0 0 17 10" fill="none" xmlns="http://www.w3.org/2000/svg">
<path d="M9.23165 9.43243C3.75955 9.43243 0.638351 5.89592 0.508301 0.0111694H3.24935C3.33939 4.33043 5.36016 6.15998 6.96078 6.53721V0.0111694H9.54177V3.73629C11.1224 3.57597 12.783 1.87845 13.3432 0.0111694H15.9242C15.7131 0.979593 15.2923 1.89653 14.6881 2.70464C14.0839 3.51275 13.3094 4.19464 12.4129 4.70765C13.4136 5.17641 14.2975 5.8399 15.0062 6.65434C15.7149 7.46877 16.2324 8.41563 16.5245 9.43243H13.6834C13.4212 8.54926 12.8883 7.75868 12.1516 7.15977C11.4149 6.56086 10.507 6.18026 9.54177 6.06568V9.43243H9.23165Z" fill="white"/>
</svg>
