<svg width="535" height="540" viewBox="0 0 535 540" fill="none" xmlns="http://www.w3.org/2000/svg">
<path opacity="0.2" d="M106.272 52.0079C152.252 18.374 207.8 0.317542 264.799 0.501392L264.8 0.501393C336.335 0.553223 404.924 28.9975 455.496 79.584C506.067 130.171 534.483 198.761 534.5 270.284C534.5 281.23 533.817 292.166 532.457 303.027L532.428 303.26L532.533 303.372L532.473 303.437L532.456 303.606C532.188 306.317 531.759 309.179 531.359 311.846C531.21 312.842 531.065 313.81 530.934 314.731C530.457 318.094 529.871 321.437 529.198 324.714L529.197 324.717L529.127 325.069L529.047 325.469C528.602 327.705 528.174 329.853 527.572 332.086L527.567 332.105L527.563 332.124L527.542 332.239C527.352 333.253 527.164 334.25 526.9 335.144L526.895 335.16L526.892 335.176C526.002 339.125 524.982 342.945 523.83 346.788L523.828 346.796C522.771 350.532 521.612 354.276 520.352 358.027L520.346 358.044L520.342 358.061C520.263 358.366 520.154 358.65 520.033 358.964L520.029 358.973C519.914 359.272 519.787 359.6 519.693 359.958C517.152 367.448 514.264 374.829 511.008 382.013L511.006 382.018C509.571 385.279 508.117 388.447 506.49 391.613L506.485 391.623C505.14 394.398 503.708 397.067 502.249 399.767L502.239 399.785L502.231 399.805C501.864 400.649 501.432 401.463 500.939 402.24L500.931 402.253L500.923 402.267C499.862 404.193 498.714 406.1 497.559 408.017L497.559 408.018L497.552 408.028L497.547 408.038C494.941 412.873 492.042 417.546 488.869 422.029L488.863 422.038C465.788 456.252 435.182 484.727 399.392 505.279C396.131 507.105 392.763 508.93 389.396 510.645L389.384 510.652C386.918 511.993 384.318 513.228 381.734 514.378L381.718 514.386L381.702 514.394C379.593 515.518 377.428 516.535 375.216 517.442L375.205 517.446L375.194 517.452C371.853 519.013 368.403 520.467 364.951 521.791C364.951 521.791 364.95 521.791 364.95 521.791L362.645 522.661L362.641 522.663C339.342 531.647 314.891 537.293 290.012 539.434L290.012 539.391L290.012 539.379L289.729 527.548V527.543V397.153V397.133L289.728 397.114L289.229 397.153C289.728 397.114 289.728 397.114 289.728 397.113L289.727 397.111L289.727 397.102L289.724 397.064C289.723 397.043 289.721 397.015 289.719 396.981C289.717 396.959 289.716 396.935 289.714 396.908C289.706 396.77 289.694 396.563 289.683 396.294C289.661 395.754 289.638 394.96 289.639 393.949C289.64 391.929 289.733 389.043 290.102 385.591C290.84 378.684 292.68 369.527 297.079 360.501C301.476 351.479 308.428 342.591 319.398 336.201C330.369 329.81 345.395 325.895 365.976 326.882C373.107 327.222 379.946 327.597 386.541 327.959L386.562 327.96L386.615 327.963C435.551 330.646 471.1 332.595 512.385 314.322L512.628 314.214L512.675 313.952C515.215 299.549 516.478 284.951 516.449 270.326C516.374 203.626 489.835 139.68 442.656 92.5222C395.477 45.3643 331.513 18.8466 264.802 18.7886M264.802 18.7886C264.802 18.7886 264.802 18.7886 264.803 18.7886L264.8 19.2886L264.801 18.7886C264.801 18.7886 264.801 18.7886 264.802 18.7886Z" stroke="white"/>
</svg>
