<svg width="123" height="72" viewBox="0 0 123 72" fill="none" xmlns="http://www.w3.org/2000/svg">
<path fill-rule="evenodd" clip-rule="evenodd" d="M69.9557 7.00105H65.2508C71.4196 2.43079 78.8981 -0.0245919 86.5737 0.000185698C96.1217 0.0071092 105.276 3.8067 112.026 10.5641C118.776 17.3214 122.569 26.4838 122.571 36.0378C122.571 37.5001 122.48 38.961 122.298 40.4119C122.308 40.4221 122.313 40.4356 122.313 40.4496C122.313 40.4637 122.308 40.4772 122.298 40.4874C122.263 40.8508 122.205 41.2341 122.152 41.5893C122.132 41.7222 122.113 41.851 122.095 41.9735C122.032 42.4234 121.953 42.8703 121.863 43.3086C121.857 43.3422 121.85 43.3756 121.843 43.4089C121.784 43.7068 121.727 43.9953 121.646 44.2955L121.643 44.3108C121.618 44.4452 121.592 44.5817 121.556 44.7047C121.437 45.233 121.301 45.7438 121.147 46.2576C121.006 46.7568 120.851 47.257 120.683 47.7582C120.671 47.8032 120.655 47.8445 120.639 47.8859C120.623 47.9273 120.607 47.9686 120.596 48.0136C120.256 49.015 119.871 50.0018 119.435 50.9626C119.244 51.3979 119.05 51.8217 118.832 52.2455C118.652 52.617 118.461 52.974 118.266 53.3339C118.216 53.4496 118.157 53.5612 118.09 53.6677C117.947 53.926 117.794 54.1814 117.64 54.4367C117.292 55.0837 116.904 55.7091 116.48 56.309C113.4 60.8794 109.315 64.6832 104.538 67.4285C104.102 67.6723 103.653 67.9162 103.203 68.1455C102.873 68.3254 102.524 68.4909 102.179 68.6447C101.896 68.7956 101.606 68.9322 101.309 69.0539C100.862 69.2629 100.401 69.4574 99.94 69.6344L99.6325 69.7505C96.5001 70.9595 93.2115 71.7159 89.8659 71.9971V71.9187L89.8282 70.3398V52.9537C89.8282 52.9537 89.048 42.9893 100.056 43.5176C101.007 43.5631 101.92 43.6132 102.799 43.6614C109.324 44.0194 114.046 44.2785 119.531 41.8487C119.869 39.9322 120.037 37.9897 120.033 36.0436C120.023 27.1679 116.494 18.6587 110.221 12.3834C103.949 6.10817 95.4438 2.5795 86.5737 2.57182C80.7393 2.54332 75.0029 4.07227 69.9557 7.00105ZM61.9638 62.0534C56.0565 56.3248 52.3058 48.7321 51.3449 40.557C51.3342 40.5162 51.3176 40.477 51.2956 40.4409C58.0358 44.3635 63.1864 44.0812 70.7552 43.6663C71.6488 43.6173 72.5762 43.5665 73.5438 43.5205C84.5519 42.9923 83.7687 52.9566 83.7687 52.9566V72C75.5728 71.2952 67.871 67.7819 61.9638 62.0534Z" fill="url(#paint0_linear_808_455)"/>
<path d="M19.977 20.9186H6.53525V16.8174H25.2823V11.4448H1.52588e-05V36.0001H19.7594C24.9633 36.0001 27.7566 35.437 27.7566 28.3578C27.7566 21.4208 24.0408 20.9186 19.977 20.9186ZM18.2105 30.6276H6.53525V25.8065H18.3613C20.4759 25.8065 21.2185 26.1258 21.2185 28.1285C21.2185 30.1312 20.3338 30.6159 18.2221 30.6159" fill="white"/>
<path d="M64.1485 17.9581V36.0001H70.6953V11.4448H61.2507L51.1274 29.5246L41.3782 11.4448H31.6116V36.0001H38.1613V17.9581L47.9511 36.0001H54.3181L64.1485 17.9581Z" fill="white"/>
<path d="M89.9704 36.0001V17.1367H100.436V11.4448H73.245V17.1367H83.4322V36.0001H89.9704Z" fill="white"/>
<defs>
<linearGradient id="paint0_linear_808_455" x1="55.0683" y1="22.442" x2="103.274" y2="50.6603" gradientUnits="userSpaceOnUse">
<stop stop-color="#5DC4E4"/>
<stop offset="1" stop-color="#74AD40"/>
</linearGradient>
</defs>
</svg>
