<svg width="295" height="297" viewBox="0 0 295 297" fill="none" xmlns="http://www.w3.org/2000/svg">
<path opacity="0.4" d="M185.52 207.479C185.52 207.479 159.779 175.45 128.323 208.058C125.557 210.923 122.925 213.689 120.389 216.354L120.388 216.355C99.0861 238.74 84.5326 254.033 53.8424 261.365L185.52 207.479ZM185.52 207.479L238.851 264.107L185.52 207.479ZM1.33994 120.726C7.12409 90.3522 22.4032 62.5892 44.9944 41.4502L44.9953 41.4494C73.4934 14.6491 111.472 0.265966 150.587 1.46039C189.702 2.65484 226.752 19.3292 253.597 47.8197C257.704 52.1809 261.536 56.7936 265.07 61.631L265.208 61.8206L265.257 61.8236L265.29 61.8673C266.198 63.0443 267.1 64.3429 267.943 65.5579L267.947 65.5636C268.26 66.0148 268.565 66.4546 268.859 66.8701C269.929 68.3876 270.949 69.9375 271.91 71.4944L271.912 71.4966L272.135 71.8533C272.798 72.9137 273.431 73.9251 274.026 75.0347L274.035 75.0518L274.045 75.0682L274.08 75.1221L274.501 74.8523L274.08 75.1222C274.387 75.6002 274.68 76.0587 274.905 76.5023L274.912 76.5169L274.92 76.5311C276.047 78.4361 277.073 80.3389 278.057 82.3009L278.06 82.3076C279.041 84.1923 279.984 86.1181 280.89 88.085L280.897 88.1013L280.906 88.1169C280.982 88.255 281.041 88.3973 281.111 88.5696C281.176 88.73 281.253 88.9188 281.356 89.1096C283.154 93.044 284.772 97.0642 286.17 101.144L286.172 101.149C286.825 102.987 287.434 104.792 287.973 106.66L287.976 106.672C288.482 108.279 288.912 109.877 289.345 111.502L289.351 111.523L289.358 111.543C289.525 112.006 289.656 112.482 289.749 112.966L289.752 112.981L289.756 112.996C290.055 114.158 290.313 115.346 290.573 116.546L290.576 116.557L290.579 116.569C291.354 119.468 291.953 122.412 292.371 125.383L292.373 125.394C296.025 147.677 294.526 170.497 287.99 192.104C287.376 194.055 286.72 196.045 286.024 197.99L286.02 198.002C285.543 199.456 284.973 200.919 284.376 202.345L284.369 202.362L284.364 202.378C283.947 203.612 283.469 204.824 282.931 206.009L282.926 206.02L282.922 206.031C282.179 207.904 281.351 209.775 280.475 211.595L279.883 212.807L279.882 212.81C274.012 225.053 266.452 236.407 257.422 246.542L253.015 242.081L253.011 242.077L204.011 190.048L203.997 190.034L203.983 190.021L203.982 190.02L203.979 190.017L203.964 190.004C203.957 189.997 203.948 189.988 203.936 189.978C203.927 189.969 203.916 189.958 203.903 189.947C203.849 189.896 203.768 189.818 203.663 189.716C203.453 189.511 203.148 189.205 202.771 188.804C202.017 188.002 200.975 186.821 199.83 185.313C197.539 182.293 194.846 177.971 193.218 172.75C191.592 167.534 191.028 161.423 192.986 154.804C194.943 148.184 199.435 141.015 207.985 133.703L207.66 133.323L207.985 133.703C210.956 131.161 213.823 128.743 216.589 126.411L216.597 126.404L216.638 126.37C237.144 109.076 252.087 96.4738 261.702 73.6296L261.806 73.384L261.659 73.1612C257.252 66.4491 252.261 60.1389 246.744 54.3045C221.607 27.6735 186.937 12.0966 150.344 10.9928C113.751 9.88897 78.2239 23.3481 51.5594 48.4165C33.9861 64.806 21.0955 85.58 14.2104 108.605L1.33994 120.726ZM185.156 207.822L238.457 264.417C212.106 285.12 179.438 296.153 145.91 295.663C112.402 295.173 80.0743 283.204 54.3201 261.765C84.9077 254.364 99.5189 239.01 120.723 216.727L120.75 216.699C123.287 214.034 125.917 211.269 128.682 208.406L128.683 208.405C136.494 200.308 143.919 196.255 150.643 194.698C157.367 193.142 163.432 194.071 168.54 196.008C173.653 197.947 177.805 200.895 180.681 203.363C182.118 204.597 183.234 205.708 183.989 206.509C184.366 206.91 184.653 207.233 184.845 207.454C184.941 207.565 185.013 207.651 185.061 207.708C185.085 207.737 185.103 207.758 185.114 207.772L185.127 207.788L185.13 207.791L185.13 207.792L185.143 207.807L185.156 207.822Z" stroke="black" stroke-opacity="0.5"/>
</svg>
